<svg width="84" height="64" viewBox="0 0 84 64" fill="none" xmlns="http://www.w3.org/2000/svg">
<path d="M42.0628 0L41.9185 0.14453V5.62061L42.0628 5.76514H57.3146V24.4229L54.9339 40.4523L54.9152 40.5808L55.0327 40.7441L65.1623 42.5079L74.3487 41.1295L74.4449 40.9073C74.3914 40.8297 69.0554 32.9154 68.6039 21.899V5.76514H83.8557L84 5.62061V0.200736L83.8557 0.0562061L42.0628 0Z" fill="#FF6130"/>
<path d="M44.3554 33.0438C41.3814 24.4657 41.7128 14.9026 41.7181 14.8063L41.5765 14.6591H30.7415L30.5999 14.7849C30.5892 14.8812 29.6326 24.4149 34.0468 33.6835C37.7315 41.4212 36.5077 50.2081 36.0454 52.7186C36.0347 52.7802 36.0267 52.8177 36.0267 52.8284L36.1603 52.9836C36.1951 52.9836 39.6339 53.1522 41.8036 53.9445C43.9279 54.6939 46.9552 57.4774 46.9846 57.5069L47.2171 57.4373C47.2224 57.4132 47.8076 55.0472 47.7435 50.8772C47.6847 47.0338 47.0488 40.8217 44.3527 33.0438H44.3554Z" fill="#FF6130"/>
<path d="M0 29.4038H23.9305V32.9127H6.41283V44.823H19.7836V48.3827H6.41283V64H0V29.4038Z" fill="#FF6130"/>
</svg>
