<svg width="792" height="589" viewBox="0 0 792 589" fill="none" xmlns="http://www.w3.org/2000/svg">
<g clip-path="url(#clip0_1184_1055)">
<mask id="mask0_1184_1055" style="mask-type:luminance" maskUnits="userSpaceOnUse" x="-103" y="-44" width="895" height="719">
<path d="M791.243 47.3531L-32.7085 -44L-102.243 583.157L721.709 674.51L791.243 47.3531Z" fill="white"/>
</mask>
<g mask="url(#mask0_1184_1055)">
<path d="M370.842 303.599L367.598 332.854C367.598 332.854 390.682 327.553 405.717 319.214L370.841 303.603L370.842 303.599Z" fill="#8B371D"/>
<path d="M678.747 38.646C678.747 38.646 671.924 25.5046 655.076 43.7764C638.229 62.0479 630.927 79.8729 593.773 85.9969L638.211 93.5269C638.211 93.5269 686.844 73.6879 678.744 38.6412L678.747 38.646Z" fill="#00A7BA"/>
<path d="M595.309 164.523C595.309 164.523 619.834 255.126 439.33 266.51L543.658 296.769L603.086 274.594C603.086 274.594 650.587 171.859 595.309 164.519V164.523Z" fill="#FF6130"/>
<path d="M439.329 266.515L436.274 294.071C436.274 294.071 466.722 293.475 484.447 279.601L439.329 266.515Z" fill="#8B371D"/>
<path d="M454.359 340.986L437.511 492.946L528.455 433.929L542.653 305.87C540.734 305.007 512.818 324.58 454.359 340.99V340.986Z" fill="#FFB21C"/>
<path d="M542.654 305.865C542.654 305.865 511.636 326.85 454.359 340.986L370.842 303.599C370.842 303.599 432.45 298.703 484.452 279.602L543.662 296.774L542.654 305.865Z" fill="#00A7BA"/>
<path d="M524.722 467.598C524.722 467.598 499.59 468.366 498.43 453.408L528.456 433.925L524.722 467.598Z" fill="#8B371D"/>
<path d="M359.496 374.566L345.273 502.855L440.82 463.097L454.36 340.981L452.803 340.286C449.659 337.678 386.276 361.196 359.496 374.566Z" fill="#9D9A00"/>
<path d="M295.37 345.144L292.261 373.185C292.261 373.185 327.281 377.086 343.048 367.019L295.37 345.144Z" fill="#8B371D"/>
<path d="M452.803 340.286C452.803 340.286 394.153 365.905 359.496 374.566L295.37 345.144C295.37 345.144 374.326 337.194 405.713 319.209L452.803 340.286Z" fill="#FF6130"/>
<path d="M343.048 367.019C343.048 367.019 305.123 394.233 -27.9691 334.385L-56.1123 588.219C-56.1123 588.219 31.0716 605.526 348.924 469.923L359.497 374.561L343.048 367.015V367.019Z" fill="#F3EBE0"/>
<path d="M345.273 502.855L318.316 482.812L348.923 469.927L345.273 502.855Z" fill="#8B371D"/>
<path d="M440.82 463.101L410.046 475.906L437.512 492.942L440.82 463.101Z" fill="#8B371D"/>
<path d="M-25.9263 267.653C31.3712 239.628 474.362 88.386 581.365 150.948C649.628 205.739 579.949 276.492 543.662 296.774L524.722 467.598C524.722 467.598 549.501 463.402 596.989 398.523C634.451 368.282 661.743 433.526 687.978 467.643C687.978 467.643 711.702 502.741 732.514 479.524C746.284 439.902 701.094 396.35 701.56 321.653C701.56 321.653 691.955 239.081 768.003 178.237C807.277 120.087 738.648 118.728 719.082 97.81C719.082 97.81 694.826 76.89 678.748 38.646C678.748 38.646 686.769 88.496 593.777 85.997C593.777 85.997 166.256 -5.67601 -37.5703 -0.147312" fill="#F3EBE0"/>
<path d="M709.17 262.561C709.17 262.561 652.561 360.762 696.663 464.266C718.444 499.666 732.518 479.524 732.518 479.524C732.518 479.524 744.167 464.784 724.174 416.385C704.181 367.986 695.399 310.385 709.17 262.561Z" fill="#00A7BA"/>
</g>
</g>
<defs>
<clipPath id="clip0_1184_1055">
<rect width="792" height="589" fill="white"/>
</clipPath>
</defs>
</svg>
