<?xml version="1.0" encoding="UTF-8"?>
<svg id="Capa_1" xmlns="http://www.w3.org/2000/svg" version="1.1" viewBox="0 0 500 500">
  <!-- Generator: Adobe Illustrator 29.4.0, SVG Export Plug-In . SVG Version: 2.1.0 Build 152)  -->
  <defs>
    <style>
      .st0 {
        fill: #0f2115;
      }

      .st1 {
        fill: #ff6130;
      }
    </style>
  </defs>
  <rect class="st0" y="0" width="500" height="500" rx="37.5" ry="37.5"/>
  <g>
    <path class="st1" d="M259.3,103l-.7.7v25.2l.7.7h70.1v85.7l-10.9,73.7v.6c0,0,.5.8.5.8l46.5,8.1,42.2-6.3.4-1c-.2-.4-24.8-36.7-26.8-87.3v-74.1h70.1l.7-.7v-24.9l-.7-.7-192-.3Z"/>
    <path class="st1" d="M269.8,254.8c-13.7-39.4-12.1-83.4-12.1-83.8l-.7-.7h-49.8l-.7.6c0,.4-4.4,44.3,15.8,86.8,16.9,35.6,11.3,75.9,9.2,87.5,0,.3,0,.5,0,.5l.6.7c.2,0,16,.8,25.9,4.4,9.8,3.4,23.7,16.2,23.8,16.4l1.1-.3c0-.1,2.7-11,2.4-30.1-.3-17.7-3.2-46.2-15.6-81.9h0Z"/>
    <path class="st1" d="M66,238.1h110v16.1h-80.5v54.7h61.4v16.4h-61.4v71.8h-29.5v-159Z"/>
  </g>
</svg>