<svg width="151" height="188" viewBox="0 0 151 188" fill="none" xmlns="http://www.w3.org/2000/svg">
<g clip-path="url(#clip0_804_1153)">
<path d="M99.5548 2.95982L67.6801 0L67.3105 0.34135V8.30583L67.7006 8.64499L99.5753 3.64143L99.5548 2.95982Z" fill="#001026"/>
<path d="M99.5548 2.95972L54.6111 9.90668L54.6316 10.5872L99.4933 14.7227L99.8629 14.3813V3.37195L99.5548 2.95972Z" fill="#9D9A00"/>
<path d="M54.6109 9.90674L54.3232 10.2459V22.0438L54.6896 22.3851L121.731 16.8144L121.734 16.1307L54.6109 9.90674Z" fill="#001026"/>
<path d="M121.734 16.1306L34.9586 23.552L34.9241 24.2314L121.64 40.662L122.042 40.3239V16.472L121.734 16.1306Z" fill="#00A7BA"/>
<path d="M34.9584 23.552L34.647 23.8934V48.8632L34.9961 49.2056L146.248 46.1542H150.66V45.4682L34.9584 23.552Z" fill="#FFB21C"/>
<path d="M150.661 45.4683H0.339413L0 45.8118V187.658L0.339413 188H150.661L151 187.658V45.8118L150.661 45.4683Z" fill="#00A7BA"/>
<g opacity="0.4">
<path d="M56.6473 129.879C63.8199 129.879 69.6344 123.994 69.6344 116.734C69.6344 109.474 63.8199 103.589 56.6473 103.589C49.4747 103.589 43.6602 109.474 43.6602 116.734C43.6602 123.994 49.4747 129.879 56.6473 129.879Z" fill="#001026"/>
<path d="M56.6474 129.993C49.4238 129.993 43.5471 124.045 43.5471 116.734C43.5471 109.423 49.4238 103.475 56.6474 103.475C63.871 103.475 69.7476 109.423 69.7476 116.734C69.7476 124.045 63.871 129.993 56.6474 129.993ZM56.6474 103.704C49.5488 103.704 43.7734 109.549 43.7734 116.734C43.7734 123.919 49.5488 129.764 56.6474 129.764C63.746 129.764 69.5214 123.919 69.5214 116.734C69.5214 109.549 63.746 103.704 56.6474 103.704Z" fill="#001026"/>
</g>
<path d="M81.6649 87.5001C84.8629 92.6029 83.3673 99.3644 78.3257 102.6C73.2841 105.837 66.6035 104.323 63.4066 99.2205C60.2086 94.1177 61.7041 87.3572 66.7458 84.1204C71.7874 80.8835 78.4668 82.3973 81.6649 87.5001Z" fill="url(#paint0_radial_804_1153)"/>
</g>
<defs>
<radialGradient id="paint0_radial_804_1153" cx="0" cy="0" r="1" gradientTransform="matrix(9.92271 -6.36863 6.29228 10.0431 73.9161 88.6374)" gradientUnits="userSpaceOnUse">
<stop stop-color="#FF2507"/>
<stop offset="0.2" stop-color="#FB2406"/>
<stop offset="0.34" stop-color="#F22206"/>
<stop offset="0.47" stop-color="#E11F05"/>
<stop offset="0.59" stop-color="#CA1A04"/>
<stop offset="0.7" stop-color="#AD1402"/>
<stop offset="0.81" stop-color="#890D00"/>
<stop offset="0.83" stop-color="#800C00"/>
<stop offset="0.87" stop-color="#7A0C01"/>
<stop offset="0.92" stop-color="#6B0C05"/>
<stop offset="0.97" stop-color="#520C0C"/>
<stop offset="1" stop-color="#430D10"/>
</radialGradient>
<clipPath id="clip0_804_1153">
<rect width="151" height="188" fill="white"/>
</clipPath>
</defs>
</svg>
