<svg width="156" height="194" viewBox="0 0 156 194" fill="none" xmlns="http://www.w3.org/2000/svg">
<g clip-path="url(#clip0_804_1140)">
<path d="M147.631 185.299L147.208 119.635L146.632 30.2363L146.63 29.9174L8.03369 29.8762V184.874L8.4569 185.301H147.632L147.631 185.299Z" fill="#001026"/>
<path d="M78.4531 0.162618L77.7177 0L60.4395 21.1245H91.4721C82.1311 13.8711 78.4971 0.32946 78.4531 0.162618Z" fill="#FFB21C"/>
<path d="M155.665 20.814H152.397L155.665 20.8224V20.814Z" fill="#F3EBE0"/>
<path d="M155.665 193.871V188.375L155.654 193.871H155.665Z" fill="#F3EBE0"/>
<path d="M8.03366 29.8763L146.63 29.9175L146.632 30.2364L147.208 119.635L147.631 185.299L147.632 185.3L155.536 193.871L155.654 194V193.871L155.665 188.375L156 20.8236L155.665 20.8225L152.397 20.8141L0 20.3875L0.42321 20.8869L8.03366 29.8763Z" fill="#00A7BA"/>
<path d="M62.1878 87.2973C66.4325 88.3839 72.082 88.9815 78.097 88.9815C84.112 88.9815 89.7614 88.3828 94.0061 87.2973C97.9596 86.2857 100.32 84.9077 100.32 83.612C100.32 82.3163 97.9596 80.9383 94.0061 79.9267C89.7614 78.8401 84.112 78.2424 78.097 78.2424C72.082 78.2424 66.4325 78.8412 62.1878 79.9267C58.2344 80.9383 55.8743 82.3163 55.8743 83.612C55.8743 84.9077 58.2344 86.2857 62.1878 87.2973Z" fill="#F3EBE0"/>
<path d="M94.2144 79.0998C89.9038 77.9963 84.1799 77.3892 78.0979 77.3892C72.0158 77.3892 66.2909 77.9963 61.9813 79.0998C58.8093 79.9119 55.0298 81.3532 55.0298 83.6119C55.0298 85.8706 58.8104 87.312 61.9813 88.1241C66.292 89.2275 72.0158 89.8347 78.0979 89.8347C84.1799 89.8347 89.9048 89.2275 94.2144 88.1241C97.3853 87.312 101.166 85.8706 101.166 83.6119C101.166 81.3532 97.3853 79.9119 94.2144 79.0998Z" fill="#FF6130"/>
<path d="M78.3494 136.869L100.869 84.5254C100.869 84.5254 96.8712 89.6563 76.2386 89.4082C58.6157 89.197 55.2185 84.272 55.2185 84.272L78.3494 136.869Z" fill="#00A7BA"/>
<path d="M147.631 185.301H8.45687L8.03366 184.875V29.8763L0 20.3875V193.871H155.536L147.632 185.3L147.631 185.301Z" fill="#FFB21C"/>
<path d="M30.1978 160.731L29.8238 160.328L29.8248 53.7716L24.3828 47.344V166.492L131.406 166.713L125.889 160.731H30.1978Z" fill="#FFB21C"/>
<path d="M29.8248 54.1085H125.201L125.204 54.4601L125.467 95.2624L125.889 160.731L131.406 166.713L131.645 47.8551L24.3828 47.344L29.8248 54.1085Z" fill="#00A7BA"/>
</g>
<defs>
<clipPath id="clip0_804_1140">
<rect width="156" height="194" fill="white"/>
</clipPath>
</defs>
</svg>
