<svg width="1698" height="137" viewBox="0 0 1698 137" fill="none" xmlns="http://www.w3.org/2000/svg">
<path d="M1179.94 36.207L1179.61 36.5374V49.2481L1179.94 49.5784H1215.47V92.8702L1209.93 130.064L1209.88 130.362L1210.15 130.738L1233.75 134.834L1255.16 131.637L1255.38 131.121C1255.26 130.936 1242.83 112.577 1241.77 87.0169V49.585H1277.3L1277.63 49.2547V36.6761L1277.3 36.3458L1179.93 36.2136L1179.94 36.207Z" fill="#0F2115"/>
<path d="M1541.81 36.2271H1526.09L1525.89 36.2931C1525.8 36.3592 1523.64 38.0504 1523.31 43.7716C1522.89 46.8568 1523.14 50.5365 1524.07 55.0157L1488.28 134.365L1488.58 134.834H1502.87L1502.98 134.768L1503.02 134.808L1514.36 130.15L1514.56 129.846L1514.96 107.933L1530.51 72.6812C1532.95 78.3825 1535.99 84.6454 1539.59 91.2914C1540.46 93.1082 1541.27 94.7796 1541.97 96.2264C1543.32 99.0209 1544.4 101.227 1544.47 101.472C1544.44 101.379 1544.47 101.194 1544.64 101.115C1544.65 101.115 1544.66 101.109 1544.67 101.102C1544.72 101.208 1544.75 101.287 1544.77 101.34L1544.46 101.525C1544.51 101.617 1548.81 110.661 1551.56 120.009C1552.8 124.799 1553.5 129.225 1553.83 134.352L1554.34 134.61C1554.34 134.61 1555.65 133.771 1558.32 133.117C1560.79 132.509 1564.99 131.934 1570.92 132.628C1574.14 133.051 1577.67 133.79 1581.43 134.828L1581.52 134.841H1586.93L1587.23 134.372L1542.12 36.4318L1541.82 36.2403L1541.81 36.2271Z" fill="#0F2115"/>
<path d="M1105.28 36.4518L1105.11 36.3329H1102.74L1102.44 36.5377C1102.4 36.6302 1098.55 46.0113 1102.42 61.4307C1106.7 78.8121 1103.54 88.0611 1102.66 90.1421L1056.9 36.4518L1056.65 36.3329H1031.71L1031.38 36.6632L1031.36 73.6261L1017.47 122.89L1017.73 123.306C1021.58 124.046 1031.32 134.61 1031.42 134.715L1031.52 134.676L1031.67 134.821H1046.88L1047.21 134.484L1047.04 64.3903L1107.39 134.702L1107.64 134.821H1117.72L1118.06 134.491L1118.01 74.9474C1117.02 45.4101 1120.39 36.7888 1120.43 36.6765L1119.96 36.2603C1113.29 39.8674 1106.55 37.0464 1105.26 36.4452L1105.28 36.4518Z" fill="#0F2115"/>
<path d="M959.404 28.4771L959.728 28.2194C959.728 28.2194 960.49 25.0021 962.41 21.4082C965.609 15.4294 969.523 12.952 972.238 11.9281C972.503 11.829 978.754 9.55635 984.913 14.4253L985.218 14.4847C985.218 14.4847 987.026 13.9298 988.827 13.355C992.092 12.3244 992.562 12.1659 992.655 11.9743L994.482 9.88006V9.43744C994.376 9.31852 991.886 6.55705 987.489 4.02019C983.43 1.68152 976.933 -0.868558 969.033 0.287562C961.821 1.34459 955.967 6.50419 952.106 15.1982C949.205 21.732 948.43 28.0411 948.417 28.1005L948.748 28.4705H959.397L959.404 28.4771Z" fill="#0F2115"/>
<path d="M1002.03 121.872C1002.03 121.872 1002.01 121.852 1002 121.839C995.694 114.017 989.807 104.068 984.218 91.7996C971.033 62.8702 958.854 36.7881 958.735 36.5305L958.43 36.3389H949.324L949.02 36.5305C948.901 36.7947 936.643 63.5176 925.411 88.873C917.464 106.803 907.445 128.168 900.471 134.252L900.611 134.827C900.789 134.873 904.677 135.818 910.359 133.195C912.279 132.356 914.358 131.108 916.471 129.271C918.63 127.474 920.729 125.287 922.742 122.724C926.967 117.347 930.848 110.278 934.279 101.716H961.145C964.642 110.377 969.595 117.505 975.873 122.909C980.9 127.236 986.78 130.467 993.356 132.521C993.356 132.521 993.403 132.535 993.429 132.548C993.456 132.555 993.482 132.568 993.509 132.574C993.76 132.654 994.005 132.726 994.257 132.799C998.932 134.18 1003.21 134.748 1006.58 134.939C1007.86 135.019 1009.02 135.052 1010.03 135.052C1012.75 135.052 1014.4 134.84 1014.44 134.834L1014.6 134.239C1010.22 130.949 1006.04 126.84 1002.03 121.879L1002.03 121.872Z" fill="#0F2115"/>
<path d="M807.103 79.3867C800.09 59.2503 800.878 36.8084 800.884 36.5838L800.553 36.2402H775.018L774.686 36.5375C774.66 36.7621 772.402 59.138 782.812 80.8929C791.501 99.0539 788.613 119.679 787.521 125.572C787.494 125.717 787.481 125.803 787.474 125.83L787.792 126.193C787.872 126.193 795.977 126.589 801.096 128.446C806.103 130.203 813.235 136.743 813.308 136.81L813.858 136.644C813.871 136.591 815.248 131.036 815.103 121.245C814.964 112.227 813.467 97.6401 807.109 79.3932L807.103 79.3867Z" fill="#0F2115"/>
<path d="M1491.07 36.0152H1476.32L1476.02 36.2134L1448.25 100.077C1447.45 98.0692 1445.81 94.2771 1443.37 88.7739C1440.46 82.0486 1438.39 77.4241 1436.44 73.3282L1436.03 72.4231C1433.28 66.332 1431.61 60.1946 1431.07 54.1894C1430.16 43.4606 1433.18 36.5503 1433.21 36.4842L1432.74 36.0548C1432.44 36.2134 1432.14 36.3719 1431.83 36.5173L1431.57 36.6494C1431.35 36.7551 1431.13 36.8608 1430.91 36.9599L1430.65 37.0788C1430.36 37.211 1430.06 37.3431 1429.77 37.462C1429.48 37.5875 1429.19 37.6998 1428.9 37.8121L1428.64 37.9112C1428.43 37.9905 1428.22 38.0698 1428.01 38.1425L1427.97 38.1557C1427.89 38.1821 1427.83 38.2085 1427.76 38.2283C1427.48 38.3274 1427.2 38.4199 1426.91 38.5058C1426.64 38.5917 1426.36 38.6776 1426.09 38.7502L1425.84 38.8163C1425.64 38.8692 1425.44 38.922 1425.24 38.9749L1425 39.0343C1424.74 39.1004 1424.47 39.1598 1424.23 39.2127H1424.21C1423.94 39.2722 1423.68 39.325 1423.42 39.3712L1423.19 39.4109C1422.99 39.4439 1422.8 39.477 1422.62 39.5034L1422.39 39.5364C1422.15 39.576 1421.9 39.6091 1421.64 39.6355C1421.39 39.6685 1421.15 39.6883 1420.9 39.7148L1420.68 39.7346C1420.5 39.7478 1420.33 39.761 1420.15 39.7742L1419.93 39.7875C1419.7 39.8007 1419.46 39.8139 1419.23 39.8205C1418.99 39.8271 1418.76 39.8271 1418.53 39.8337C1418.5 39.8337 1418.48 39.8337 1418.46 39.8337C1410.44 39.8337 1405.37 36.0945 1405.31 36.0548L1404.81 36.187C1404.76 36.2993 1403.57 39.0277 1403.28 44.5176C1403.01 49.5583 1403.49 57.9815 1407.31 69.4898C1411.64 82.5177 1437.46 134.1 1437.72 134.622L1438.01 134.807H1447.12L1447.42 134.609L1491.38 36.4578L1491.08 35.9888L1491.07 36.0152Z" fill="#0F2115"/>
<path d="M1688.52 116.917L1684.18 105.184C1680.64 94.9839 1672.54 90.3 1668.41 89.3024C1669.81 88.3643 1673.11 85.9992 1676.46 82.5176C1680.53 78.2895 1685.53 71.4849 1686.21 63.1146C1686.68 57.4001 1684.51 51.6327 1680.11 46.8761C1673.93 40.1838 1664.16 36.3389 1653.32 36.3389H1605.27L1604.94 36.6692V134.503L1605.27 134.834H1630.9L1631.23 134.503V49.0496C1646.05 50.067 1655.21 54.3281 1658.44 61.7075C1661.46 68.6111 1658.68 77.074 1655.82 82.9537C1652.69 89.3685 1648.79 94.1978 1648.75 94.244L1648.82 94.7329L1651.13 96.259L1651.47 96.2457C1653.62 97.9172 1655 100.157 1656.36 104.147L1661.68 119.52C1663.66 125.281 1665.18 129.45 1668.3 134.675L1668.58 134.84H1697.58L1697.85 134.312C1693.07 127.758 1691.23 124.343 1688.51 116.924L1688.52 116.917Z" fill="#0F2115"/>
<path d="M882.148 117.664C881.969 117.518 881.783 117.373 881.591 117.241L917.425 36.8079L917.12 36.3389H902.379L902.074 36.5371L874.598 100.216C873.174 96.6223 869.075 87.3337 862.387 72.5684C857.413 61.5819 856.83 52.4453 857.221 46.7109C857.638 40.5009 859.254 36.841 859.274 36.8013L858.81 36.3719C857.161 37.2439 855.479 37.9839 853.817 38.5586C850.407 39.6949 847.513 40.0252 846.433 40.1111C837.308 40.7784 831.427 36.4512 831.367 36.4049L830.871 36.5238C830.805 36.656 829.202 39.8997 828.745 45.6671C828.321 50.9654 828.844 59.4811 833.718 69.9258L864.035 134.867L864.585 134.953C864.618 134.92 867.843 131.498 875.055 131.498C878.187 131.498 881.313 133.096 881.346 133.116L881.744 133.05C881.889 132.898 885.24 129.324 885.24 124.845C885.24 120.881 883.565 118.754 882.161 117.67L882.148 117.664Z" fill="#0F2115"/>
<path d="M1370.61 51.6923C1360.92 42.3839 1348.04 37.2573 1334.33 37.2573C1320.62 37.2573 1307.74 42.3839 1298.04 51.6923C1288.35 61.0074 1283.01 73.3878 1283.01 86.5609C1283.01 99.7341 1288.35 112.114 1298.04 121.43C1307.74 130.738 1320.62 135.865 1334.33 135.865C1348.04 135.865 1360.92 130.738 1370.61 121.43C1380.31 112.114 1385.64 99.7341 1385.64 86.5609C1385.64 73.3878 1380.31 61.0074 1370.61 51.6923ZM1344.36 112.504C1339.45 117.651 1333.9 119.197 1331.7 119.626C1329.88 119.58 1328.58 119.302 1328.1 119.183C1323.73 118.1 1319.74 114.268 1316.85 108.395C1313.7 101.974 1312.03 93.5439 1312.03 84.0241C1312.03 71.3794 1314.52 62.2163 1319.43 56.7925C1323.57 52.2274 1328.12 51.8707 1329.41 51.8707C1335.34 51.8707 1340.39 54.3944 1344.41 59.3624C1347.47 63.1412 1349.96 68.4462 1351.63 74.6958C1352.63 79.0494 1352.84 82.4848 1352.87 83.1256C1353.51 96.0345 1350.64 105.911 1344.36 112.498V112.504Z" fill="#0F2115"/>
<path d="M0 44.0581H56.2899V52.2765H15.0857V80.1819H46.5352V88.5192H15.0857V125.105H0V44.0581Z" fill="#0F2115"/>
<path d="M139.851 44.0581V93.4938C139.851 115.031 126.275 126.262 107.123 126.262C85.5342 126.262 72.8855 114.218 72.8855 93.6127V44.0581H87.9712V92.3377C87.9712 107.968 95.514 116.88 109.209 116.88C122.904 116.88 130.103 109.006 130.103 92.3377V44.0581H139.851Z" fill="#0F2115"/>
<path d="M221.557 44.0581H231.305V125.337H225.385L172.459 61.0762V125.105H162.711V44.0581H177.22L221.557 98.2438V44.0581Z" fill="#0F2115"/>
<path d="M255.45 125.105V44.0581H282.257C310.111 44.0581 328.336 58.764 328.336 84.2317C328.336 110.974 309.416 125.105 283.767 125.105H255.45ZM281.099 51.814H270.536V117.35H282.026C300.826 117.35 312.084 106.812 312.084 84.2383C312.084 63.7452 300.826 51.8206 281.099 51.8206V51.814Z" fill="#0F2115"/>
<path d="M387.758 102.531H355.03L345.395 125.106H335.878L371.507 43.5957H377.771L413.631 125.106H397.731L387.751 102.531H387.758ZM358.275 95.0001H384.506L371.162 64.7824L358.282 95.0001H358.275Z" fill="#0F2115"/>
<path d="M463.544 42.9023C477.935 42.9023 489.312 49.152 495.927 60.733L489.663 67.3328C484.557 58.0706 477.127 51.4708 465.173 51.4708C449.154 51.4708 438.247 63.3954 438.247 84.3509C438.247 105.306 450.664 117.231 465.054 117.35C477.007 117.35 484.438 111.906 489.775 102.182L495.927 106.932C489.312 119.206 478.054 126.269 462.968 126.269C440.22 126.269 421.3 110.407 421.3 85.2824C421.3 60.1583 440.101 42.9089 463.544 42.9089V42.9023Z" fill="#0F2115"/>
<path d="M527.026 125.105H511.94V44.0581H527.026V125.105Z" fill="#0F2115"/>
<path d="M585.872 42.9024C609.203 42.9024 627.308 60.8454 627.308 84.5822C627.308 108.319 609.203 126.262 585.872 126.262C562.542 126.262 544.436 108.319 544.436 84.5822C544.436 60.8454 562.423 42.9024 585.872 42.9024ZM585.872 118.737C601.653 118.737 610.362 105.888 610.362 84.5822C610.362 63.2765 601.66 50.3082 585.872 50.3082C570.085 50.3082 561.383 63.1576 561.383 84.5822C561.383 106.007 569.972 118.737 585.872 118.737ZM588.773 36.4149H581.806L588.422 16.272H603.627L588.773 36.4149Z" fill="#0F2115"/>
<path d="M703.438 44.0581H713.186V125.337H707.266L654.34 61.0762V125.105H644.592V44.0581H659.102L703.438 98.2438V44.0581Z" fill="#0F2115"/>
</svg>
