<svg width="136" height="207" viewBox="0 0 136 207" fill="none" xmlns="http://www.w3.org/2000/svg">
<g clip-path="url(#clip0_804_1126)">
<path d="M60.6022 13.855V0.721603C59.024 0.575837 52.2058 0 43.6837 0C29.876 0 11.5936 1.51187 3.84497 8.81825C1.20941 11.3035 -0.0395129 14.3357 0.130523 17.8293C0.567587 26.7836 6.77749 33.9756 18.0909 38.628C18.3675 38.7413 19.6751 39.3195 19.9565 39.4303C19.9565 39.4303 58.5091 13.7044 60.6022 13.855Z" fill="#91951B"/>
<path d="M56.9356 13.519C50.691 19.2256 44.0404 17.5222 43.9745 17.5041L43.6177 17.5945C40.751 20.3038 35.9254 22.4541 35.8763 22.4758L35.8116 22.512C29.1503 27.1825 19.9025 26.0128 19.8091 26.0007L19.3816 26.3778V39.8401L19.76 40.2208H56.8949L57.2733 39.8449L57.569 13.8058L56.9368 13.5202L56.9356 13.519Z" fill="#6B69B4"/>
<path d="M133.148 11.5603L99.2554 2.88184L99.417 36.8357L99.8912 36.7068C117.816 31.8339 132.92 13.6131 133.07 13.43L133.157 13.324L133.148 11.5603Z" fill="#001026"/>
<path d="M56.9358 13.5189L57.1896 31.0012L85.6383 24.9393C85.6383 24.9393 87.1818 12.1131 84.4074 13.4503C79.3698 15.8801 56.9358 13.5189 56.9358 13.5189Z" fill="#FF6130"/>
<path d="M42.448 50.6269C42.448 50.6269 41.435 61.9292 65.9812 61.8328C81.0953 61.7738 99.7932 52.1267 99.7932 52.1267L99.2556 2.88184C99.2556 2.88184 89.2594 14.7672 67.1404 18.4523C51.1606 21.1147 43.8766 17.8705 43.8766 17.8705L43.6048 50.2775" fill="#FF6130"/>
<path d="M34.8657 97.0165C34.8657 97.0165 34.8657 112.422 67.3222 112.295C87.3074 112.217 112.033 99.4608 112.033 99.4608L108.464 5.60303C108.464 5.60303 91.5104 20.5121 69.6009 25.2923C47.4651 30.1219 35.9302 22.5986 35.9302 22.5986L34.8657 97.0165Z" fill="#FF6130"/>
<path d="M19.4524 126.142C19.4524 126.142 19.4524 145.897 61.0705 145.733C86.6968 145.633 118.4 129.276 118.4 129.276V8.03906C118.4 9.13532 92.9247 32.2893 60.5376 35.148C50.1115 36.0683 24.9893 31.505 19.9912 26.6381L19.4536 126.141" fill="#FF6130"/>
<path d="M67.0781 17.6824C63.4427 18.2883 59.7617 18.5775 57.0112 18.675L57.022 19.4786C59.8037 19.3762 63.5085 19.0485 67.2014 18.4329C73.0198 17.4631 78.9902 15.5658 83.2315 13.8647C81.506 14.2466 80.4163 14.3563 79.6883 14.4237C76.0133 15.7428 71.8139 16.8945 67.0781 17.6836V17.6824Z" fill="#6B69B4"/>
<path d="M99.3548 12.3819C92.248 16.9633 81.7704 22.8337 69.9134 25.4201C58.4108 27.9294 49.7881 27.0067 44.5816 25.7911C44.3182 25.7297 44.0596 25.6671 43.8081 25.6032L43.8141 24.819C44.1326 24.9009 44.4595 24.9816 44.7972 25.0599C49.9222 26.2513 58.412 27.1512 69.753 24.6768C81.7333 22.0627 92.2959 16.0742 99.3452 11.4844" fill="#6B69B4"/>
<path d="M35.795 31.7698C36.5745 31.9529 37.3744 32.1312 38.1934 32.3071C46.8688 34.1611 55.6257 35.0827 60.5064 34.6514C77.1712 33.1805 91.6949 26.2933 100.945 20.7747C103.94 18.9882 106.554 17.1872 108.822 15.5645L108.857 16.4692C106.848 17.8931 104.519 19.5074 101.811 21.1409C92.393 26.821 77.5951 33.9069 60.5723 35.4091C55.6245 35.8464 46.779 34.92 38.0366 33.0516C37.269 32.8877 36.5182 32.7203 35.7842 32.548L35.795 31.7698Z" fill="#6B69B4"/>
<path d="M0 180.072C0 180.072 0 207.223 57.2015 206.999C92.4229 206.86 136 184.38 136 184.38L133.144 11.5591C133.144 11.5591 92.4241 44.66 57.2027 44.7986C0 45.0227 0.119744 17.5475 0.119744 17.5475L0 180.072Z" fill="#00A7BA"/>
</g>
<defs>
<clipPath id="clip0_804_1126">
<rect width="136" height="207" fill="white"/>
</clipPath>
</defs>
</svg>
