<svg width="524" height="199" viewBox="0 0 524 199" fill="none" xmlns="http://www.w3.org/2000/svg">
<g clip-path="url(#clip0_926_1179)">
<path d="M143.919 69.7209C143.919 69.7209 130.102 119.535 169.761 162.089L182.145 154.466C182.145 154.466 198.058 77.1623 143.923 69.7209H143.919Z" fill="#8B371D"/>
<path d="M227.548 29.9338C227.548 29.9338 194.887 119.121 248.546 166.053C248.546 166.053 266.309 172.657 280.19 160.173C294.071 147.689 289.281 50.4646 289.281 50.4646L227.548 29.9384V29.9338Z" fill="#8B371D"/>
<path d="M332.347 1.84327C332.347 1.84327 310.455 2.14366 319.786 80.6441C329.117 159.144 325.887 171.87 344.372 186.033C344.372 186.033 373.98 176.79 379.723 147.261C385.465 117.732 430.687 106.568 403.411 63.3583C376.135 20.1485 353.163 -2.05717 332.347 1.84327Z" fill="#8B371D"/>
<path d="M236.879 81.905C236.879 81.905 41.633 79.7476 0 189.215C0 189.215 69.2673 137.722 236.879 136.998V81.905Z" fill="#FF6130"/>
<path d="M258.743 56.7135C258.743 56.7135 162.045 61.9794 143.919 69.7211C143.919 69.7211 199.192 110.232 169.761 162.089C169.761 162.089 178.376 163.168 193.449 155.968C237.328 142.419 275.64 144.567 327.511 144.626L329.834 56.263C329.834 56.263 301.787 54.3287 258.743 56.7135Z" fill="#00A7BA"/>
<path d="M227.548 29.9337C227.548 29.9337 249.081 38.5766 261.465 61.2647C273.849 83.9528 290.065 81.2494 290.065 81.2494C290.065 81.2494 266.849 93.1327 263.619 136.884C260.93 170.914 248.546 166.053 248.546 166.053C248.546 166.053 258.775 174.696 294.307 162.813C329.838 150.929 357.831 162.813 357.831 162.813L386.903 177.937L397.672 32.6372C372.37 21.0314 273.849 15.893 227.552 29.9383L227.548 29.9337Z" fill="#9D9A00"/>
<path d="M524 15.5291C460.739 -3.08566 329.875 -0.978421 332.347 1.84337C332.347 1.84337 361.061 11.2053 366.082 70.9818C368.237 107.87 389.053 114.196 389.053 114.196C389.053 114.196 365.905 109.335 357.826 162.808C357.826 162.808 356.212 177.932 344.368 186.034C408.273 183.093 468.895 186.079 524 198.996V15.5291Z" fill="#FFB21C"/>
</g>
<defs>
<clipPath id="clip0_926_1179">
<rect width="524" height="199" fill="white"/>
</clipPath>
</defs>
</svg>
