<svg width="50" height="24" viewBox="0 0 50 24" fill="none" xmlns="http://www.w3.org/2000/svg">
<path d="M49.8915 17.5362C48.6751 17.0112 33.9835 10.3388 24.6569 14.3029C24.3311 14.4385 21.8854 15.6198 22.2242 17.5931C22.424 18.7569 23.7837 18.7394 24.2398 18.7307C24.3441 20.7958 24.6525 23.0841 24.6525 23.0841L1.21536e-05 11.542L24.6525 1.15529e-06C24.6525 1.15529e-06 24.3441 2.28828 24.2398 4.3578C23.7837 4.34905 22.424 4.33593 22.2242 5.49538C21.881 7.46864 24.3311 8.6456 24.6569 8.78561C33.9835 12.7496 48.6751 6.0773 49.8915 5.55227L49.8915 17.5362Z" fill="#182718"/>
</svg>
