<svg width="24" height="50" viewBox="0 0 24 50" fill="none" xmlns="http://www.w3.org/2000/svg">
<path d="M5.54788 49.8915C6.07292 48.6751 12.7453 33.9835 8.78124 24.6569C8.6456 24.3311 7.46427 21.8854 5.49101 22.2242C4.32718 22.424 4.34468 23.7837 4.35343 24.2398C2.28828 24.3441 3.00972e-07 24.6525 3.00972e-07 24.6525L11.5421 1.12822e-05L23.0841 24.6525C23.0841 24.6525 20.7958 24.3441 18.7263 24.2398C18.7351 23.7837 18.7482 22.424 17.5887 22.2242C15.6155 21.881 14.4385 24.3311 14.2985 24.6569C10.3345 33.9835 17.0068 48.6751 17.5318 49.8915L5.54788 49.8915Z" fill="#182718"/>
</svg>
