<svg width="24" height="50" viewBox="0 0 24 50" fill="none" xmlns="http://www.w3.org/2000/svg">
<path d="M17.5362 6.61579e-08C17.0112 1.21634 10.3388 15.9079 14.3029 25.2346C14.4385 25.5604 15.6198 28.0061 17.5931 27.6673C18.7569 27.4675 18.7394 26.1078 18.7307 25.6516C20.7958 25.5474 23.0841 25.239 23.0841 25.239L11.5421 49.8915L3.66272e-06 25.239C3.66272e-06 25.239 2.28829 25.5474 4.35781 25.6516C4.34906 26.1078 4.33593 27.4675 5.49538 27.6673C7.46865 28.0105 8.64561 25.5604 8.78561 25.2346C12.7496 15.9079 6.0773 1.21634 5.55227 2.09065e-07L17.5362 6.61579e-08Z" fill="#182718"/>
</svg>
