<svg width="36" height="36" viewBox="0 0 36 36" fill="none" xmlns="http://www.w3.org/2000/svg">
<path d="M31.1599 4.84346V0H27.6325V4.84346H8.00609V0H4.47872V4.84346H0V31.9835C0.0651608 32.0185 5.73849 34.3943 13.9922 35.3262C16.3945 35.5931 19.0009 35.6631 21.8072 35.5318C26.5856 35.2431 31.2338 33.8036 35.669 31.9835V4.84346H31.1599ZM7.7802 27.3281H4.18766V23.8017H7.7802V27.3281ZM7.7802 21.2377H4.18766V17.7112H7.7802V21.2377ZM7.7802 14.911H4.18766V11.3845H7.7802V14.911ZM15.5821 27.3281H11.9896V23.8017H15.5821V27.3281ZM15.5821 21.2377H11.9896V17.7112H15.5821V21.2377ZM15.5821 14.911H11.9896V11.3845H15.5821V14.911ZM23.3884 21.2377H19.7959V17.7112H23.3884V21.2377ZM23.3884 14.911H19.7959V11.3845H23.3884V14.911ZM31.1903 21.2377H27.5978V17.7112H31.1903V21.2377ZM31.1903 14.911H27.5978V11.3845H31.1903V14.911Z" fill="#182718"/>
</svg>
