<svg width="31" height="35" viewBox="0 0 31 35" fill="none" xmlns="http://www.w3.org/2000/svg">
<path d="M30.4866 27.4332L19.7046 16.5737C22.3675 12.7103 25.7429 10.1551 26.9896 9.29315C27.0331 9.26252 27.0548 9.24502 27.0635 9.24064L27.0765 9.07001C27.0765 9.07001 25.1564 6.93923 24.3528 5.20661C23.5535 3.5265 23.4101 0.13126 23.4101 0.0962572L23.2363 0C23.2363 0 21.5074 1.05007 19.1269 3.52212C17.6586 5.0491 15.7211 7.35051 13.7185 10.5401L6.04692 2.81332L0 8.90374L9.4266 18.3982C6.15553 23.9417 1.76803 28.0632 1.7159 28.1113V28.282L8.00609 34.6218L8.16248 34.6305C8.21461 34.5868 12.7107 30.8853 15.7559 24.7773L24.444 33.528L30.4909 27.4375L30.4866 27.4332Z" fill="#182718"/>
</svg>
