<svg width="20" height="20" viewBox="0 0 20 20" fill="none" xmlns="http://www.w3.org/2000/svg">
<path d="M18.75 12.75L15.664 9.664C15.2889 9.28906 14.7803 9.07843 14.25 9.07843C13.7197 9.07843 13.2111 9.28906 12.836 9.664L3.75 18.75M2.75 0.75H16.75C17.8546 0.75 18.75 1.64543 18.75 2.75V16.75C18.75 17.8546 17.8546 18.75 16.75 18.75H2.75C1.64543 18.75 0.75 17.8546 0.75 16.75V2.75C0.75 1.64543 1.64543 0.75 2.75 0.75ZM8.75 6.75C8.75 7.85457 7.85457 8.75 6.75 8.75C5.64543 8.75 4.75 7.85457 4.75 6.75C4.75 5.64543 5.64543 4.75 6.75 4.75C7.85457 4.75 8.75 5.64543 8.75 6.75Z" stroke="#F3EBE0" stroke-width="1.5" stroke-linecap="round" stroke-linejoin="round"/>
</svg>
