<svg width="430" height="281" viewBox="0 0 430 281" fill="none" xmlns="http://www.w3.org/2000/svg">
<rect x="155.5" y="264.5" width="249" height="253" rx="3.5" transform="rotate(-90 155.5 264.5)" fill="#F3EBE0"/>
<rect x="155.5" y="264.5" width="249" height="253" rx="3.5" transform="rotate(-90 155.5 264.5)" stroke="#FF6130"/>
<path d="M290.333 115L281.761 123.572C280.72 124.614 280.135 126.027 280.135 127.5C280.135 128.973 280.72 130.386 281.761 131.428L307 156.667M257 159.444L257 120.556C257 117.487 259.487 115 262.556 115L301.444 115C304.513 115 307 117.487 307 120.556L307 159.444C307 162.513 304.513 165 301.444 165L262.556 165C259.487 165 257 162.513 257 159.444ZM273.667 142.778C276.735 142.778 279.222 145.265 279.222 148.333C279.222 151.402 276.735 153.889 273.667 153.889C270.598 153.889 268.111 151.402 268.111 148.333C268.111 145.265 270.598 142.778 273.667 142.778Z" stroke="#FF6130" stroke-width="2" stroke-linecap="round" stroke-linejoin="round"/>
<path d="M119.533 17.4968L119.533 102.353C119.533 102.353 119.533 113.191 95.6747 120.072C79.5904 124.71 71.1801 131.176 78.9873 136.91C78.9873 136.91 119.389 164.73 119.389 180.838L119.389 263.503C119.389 273.168 127.222 281 136.879 281L412.506 281C422.167 281 429.996 273.164 429.996 263.503L429.996 17.4968C429.996 7.83225 422.163 -2.4742e-05 412.506 -2.43198e-05L137.023 -1.22781e-05C127.362 -1.18558e-05 119.533 7.83596 119.533 17.4968ZM380.522 38.3619C386.18 38.3619 390.768 42.9517 390.768 48.6112L390.768 234.288C390.768 239.947 386.18 244.537 380.522 244.537L168.567 244.537C162.909 244.537 158.321 239.947 158.321 234.288L158.321 48.6112C158.321 42.9517 162.909 38.3619 168.567 38.3619L380.522 38.3619Z" fill="#FF6130"/>
<path d="M94.7236 148.995C94.7236 148.995 70.4955 128.174 56.8347 122.707C43.174 117.24 35.3668 134.618 42.9779 140.474C50.589 146.33 61.1268 164.489 84.5484 157.264C96.2592 153.751 94.7236 148.995 94.7236 148.995Z" fill="#9D9A00"/>
<path d="M1.90735e-05 125.635L21.8986 125.635C32.0479 125.635 53.5048 150.442 53.5048 150.442C53.5048 150.442 54.2966 158.937 27.3636 158.937L1.52588e-05 158.937" fill="#FFB21C"/>
</svg>
