<svg width="441" height="871" viewBox="0 0 441 871" fill="none" xmlns="http://www.w3.org/2000/svg">
<rect x="16.5" y="596.5" width="397" height="253" rx="3.5" fill="#F3EBE0"/>
<rect x="16.5" y="596.5" width="397" height="253" rx="3.5" stroke="#FF6130"/>
<path d="M240 731.333L231.428 722.761C230.386 721.72 228.973 721.135 227.5 721.135C226.027 721.135 224.614 721.72 223.572 722.761L198.333 748M195.556 698H234.444C237.513 698 240 700.487 240 703.556V742.444C240 745.513 237.513 748 234.444 748H195.556C192.487 748 190 745.513 190 742.444V703.556C190 700.487 192.487 698 195.556 698ZM212.222 714.667C212.222 717.735 209.735 720.222 206.667 720.222C203.598 720.222 201.111 717.735 201.111 714.667C201.111 711.598 203.598 709.111 206.667 709.111C209.735 709.111 212.222 711.598 212.222 714.667Z" stroke="#FF6130" stroke-width="2" stroke-linecap="round" stroke-linejoin="round"/>
<path d="M423.503 560.533H178.647C178.647 560.533 167.809 560.533 160.928 536.675C156.29 520.59 149.824 512.18 144.09 519.987C144.09 519.987 116.27 560.389 100.162 560.389H17.4968C7.83229 560.389 0 568.222 0 577.879V853.506C0 863.167 7.83599 870.996 17.4968 870.996H423.503C433.168 870.996 441 863.163 441 853.506V578.023C441 568.362 433.164 560.533 423.503 560.533ZM402.638 821.523C402.638 827.18 398.048 831.768 392.389 831.768H46.7124C41.0529 831.768 36.4631 827.18 36.4631 821.523V609.567C36.4631 603.909 41.0529 599.321 46.7124 599.321H392.389C398.048 599.321 402.638 603.909 402.638 609.567V821.523Z" fill="#FF6130"/>
<path d="M132.005 535.724C132.005 535.724 152.826 511.495 158.293 497.835C163.76 484.174 146.382 476.367 140.526 483.978C134.67 491.589 116.511 502.127 123.736 525.548C127.249 537.259 132.005 535.724 132.005 535.724Z" fill="#9D9A00"/>
<path d="M155.365 378V462.899C155.365 473.048 130.558 494.505 130.558 494.505C130.558 494.505 122.063 495.297 122.063 468.364V378" fill="#FFB21C"/>
<rect x="122" width="33" height="431" fill="#FFB21C"/>
</svg>
