<svg width="281" height="493" viewBox="0 0 281 493" fill="none" xmlns="http://www.w3.org/2000/svg">
<rect x="16.5" y="218.5" width="249" height="253" rx="3.5" fill="#F3EBE0"/>
<rect x="16.5" y="218.5" width="249" height="253" rx="3.5" stroke="#FF6130"/>
<path d="M166 353.333L157.428 344.761C156.386 343.72 154.973 343.135 153.5 343.135C152.027 343.135 150.614 343.72 149.572 344.761L124.333 370M121.556 320H160.444C163.513 320 166 322.487 166 325.556V364.444C166 367.513 163.513 370 160.444 370H121.556C118.487 370 116 367.513 116 364.444V325.556C116 322.487 118.487 320 121.556 320ZM138.222 336.667C138.222 339.735 135.735 342.222 132.667 342.222C129.598 342.222 127.111 339.735 127.111 336.667C127.111 333.598 129.598 331.111 132.667 331.111C135.735 331.111 138.222 333.598 138.222 336.667Z" stroke="#FF6130" stroke-width="2" stroke-linecap="round" stroke-linejoin="round"/>
<path d="M263.503 182.533H178.647C178.647 182.533 167.809 182.533 160.928 158.675C156.29 142.59 149.824 134.18 144.09 141.987C144.09 141.987 116.27 182.389 100.162 182.389H17.4968C7.83229 182.389 0 190.222 0 199.879V475.506C0 485.167 7.83599 492.996 17.4968 492.996H263.503C273.168 492.996 281 485.163 281 475.506V200.023C281 190.362 273.164 182.533 263.503 182.533ZM242.638 443.523C242.638 449.18 238.048 453.768 232.389 453.768H46.7124C41.0529 453.768 36.4631 449.18 36.4631 443.523V231.567C36.4631 225.909 41.0529 221.321 46.7124 221.321H232.389C238.048 221.321 242.638 225.909 242.638 231.567V443.523Z" fill="#FF6130"/>
<path d="M132.005 157.724C132.005 157.724 152.826 133.495 158.293 119.835C163.76 106.174 146.382 98.3668 140.526 105.978C134.67 113.589 116.511 124.127 123.736 147.548C127.249 159.259 132.005 157.724 132.005 157.724Z" fill="#9D9A00"/>
<path d="M155.365 0V84.8986C155.365 95.0479 130.558 116.505 130.558 116.505C130.558 116.505 122.063 117.297 122.063 90.3636V0" fill="#FFB21C"/>
<rect x="122" width="33" height="40" fill="#FFB21C"/>
</svg>
