<svg width="646" height="281" viewBox="0 0 646 281" fill="none" xmlns="http://www.w3.org/2000/svg">
<rect x="334.496" y="16.5" width="249" height="316" rx="3.5" transform="rotate(90 334.496 16.5)" fill="#F3EBE0"/>
<rect x="334.496" y="16.5" width="249" height="316" rx="3.5" transform="rotate(90 334.496 16.5)" stroke="#FF6130"/>
<path d="M168.163 166L176.735 157.428C177.777 156.386 178.362 154.973 178.362 153.5C178.362 152.027 177.777 150.614 176.735 149.572L151.496 124.333M201.496 121.556L201.496 160.444C201.496 163.513 199.009 166 195.941 166L157.052 166C153.984 166 151.496 163.513 151.496 160.444L151.496 121.556C151.496 118.487 153.984 116 157.052 116L195.941 116C199.009 116 201.496 118.487 201.496 121.556ZM184.83 138.222C181.762 138.222 179.274 135.735 179.274 132.667C179.274 129.598 181.762 127.111 184.83 127.111C187.898 127.111 190.385 129.598 190.385 132.667C190.385 135.735 187.898 138.222 184.83 138.222Z" stroke="#FF6130" stroke-width="2" stroke-linecap="round" stroke-linejoin="round"/>
<path d="M370.463 263.503L370.463 178.647C370.463 178.647 370.463 167.809 394.322 160.928C410.406 156.29 418.816 149.824 411.009 144.09C411.009 144.09 370.608 116.27 370.608 100.162L370.608 17.4968C370.608 7.83229 362.775 -2.23738e-06 353.117 -2.65951e-06L17.4904 -1.73302e-05C7.82942 -1.77525e-05 3.01751e-05 7.83597 2.97528e-05 17.4968L1.89995e-05 263.503C1.8577e-05 273.168 7.83311 281 17.4903 281L352.973 281C362.634 281 370.463 273.164 370.463 263.503ZM49.4739 242.638C43.8165 242.638 39.2284 238.048 39.2284 232.389L39.2284 46.7124C39.2284 41.0529 43.8165 36.4631 49.4739 36.4631L321.43 36.4631C327.087 36.4631 331.675 41.0529 331.675 46.7124L331.675 232.389C331.675 238.048 327.087 242.638 321.43 242.638L49.4739 242.638Z" fill="#FF6130"/>
<path d="M395.273 132.005C395.273 132.005 419.501 152.826 433.162 158.293C446.822 163.76 454.63 146.382 447.019 140.526C439.408 134.67 428.87 116.511 405.448 123.736C393.737 127.249 395.273 132.005 395.273 132.005Z" fill="#9D9A00"/>
<path d="M552.996 155.365L468.098 155.365C457.949 155.365 436.492 130.558 436.492 130.558C436.492 130.558 435.7 122.063 462.633 122.063L552.996 122.063" fill="#FFB21C"/>
<rect x="646" y="122" width="33" height="146" transform="rotate(90 646 122)" fill="#FFB21C"/>
</svg>
