<svg width="174" height="123" viewBox="0 0 174 123" fill="none" xmlns="http://www.w3.org/2000/svg">
<path d="M112 10.3731L156 0V123L112 112.627V10.3731Z" fill="#9D9A00"/>
<path d="M124 13.229L132 11V113L124 110.771V13.229Z" fill="#2F2E00"/>
<rect x="156" width="18" height="123" fill="#FFB21C"/>
<rect x="1.5" y="19.5" width="136" height="84" fill="#0F2115" stroke="#9D9A00" stroke-width="3"/>
<path d="M43.5381 42L43.4505 42.0881V45.4251L43.5381 45.5131H52.7982V56.8827L51.3527 66.6506L51.3414 66.7289L51.4127 66.8284L57.5628 67.9032L63.1403 67.0633L63.1987 66.9279C63.1662 66.8806 59.9265 62.0578 59.6524 55.3447V45.5131H68.9124L69 45.4251V42.1223L68.9124 42.0343L43.5381 42Z" fill="#FF6130"/>
<path d="M44.9301 62.1361C43.1244 56.9088 43.3256 51.0813 43.3288 51.0226L43.2429 50.9329H36.6645L36.5785 51.0095C36.572 51.0683 35.9912 56.8778 38.6712 62.5259C40.9084 67.2411 40.1654 72.5956 39.8847 74.1254C39.8782 74.1629 39.8734 74.1858 39.8734 74.1923L39.9545 74.2869C39.9756 74.2869 42.0635 74.3896 43.3808 74.8724C44.6705 75.3291 46.5085 77.0253 46.5264 77.0432L46.6675 77.0008C46.6708 76.9862 47.0261 75.5444 46.9871 73.0033C46.9514 70.6612 46.5653 66.8757 44.9284 62.1361H44.9301Z" fill="#FF6130"/>
<path d="M18 59.9179H32.5292V62.0562H21.8935V69.314H30.0115V71.4832H21.8935V81H18V59.9179Z" fill="#FF6130"/>
<path d="M132 10.3731L156 0V123L132 112.627V10.3731Z" fill="#9D9A00"/>
<rect x="90" y="51" width="19" height="2" fill="#FFB21C"/>
<rect x="90" y="61" width="29" height="2" fill="#FFB21C"/>
<rect x="101" y="70" width="18" height="2" fill="#FFB21C"/>
</svg>
