<svg width="741" height="965" viewBox="0 0 741 965" fill="none" xmlns="http://www.w3.org/2000/svg">
<g clip-path="url(#clip0_1129_1006)">
<path d="M145.182 836.952C145.182 836.952 132.898 841.502 130.845 851.752L147.633 856.872C147.633 856.872 153.342 848.445 145.173 836.943L145.182 836.952Z" fill="#8B371D"/>
<path d="M225.309 853.124C225.309 853.124 198.126 838.325 191.265 811.455L206.797 803.26L234.898 832.41L225.3 853.133L225.309 853.124Z" fill="#8B371D"/>
<path d="M0.277173 1039.97C-6.34955 1036.78 106.625 917.451 106.625 917.451C106.625 917.451 137.463 883.293 105.594 859.385L72.3568 835.476C73.2837 822.144 77.0778 812.43 88.8067 812.681L146.039 850.163C146.039 850.163 147.581 844.637 145.182 836.952L160.427 846.174C160.427 846.174 167.626 849.42 175.162 843.609C182.698 837.798 217.824 803.243 217.824 803.243L239.359 823.621C239.359 823.621 6.90389 1043.16 0.277173 1039.97Z" fill="#9D9A00"/>
<path d="M224.113 767.954C224.113 767.954 217.486 781.389 240.104 798.693C262.721 815.996 271.401 812.353 271.401 812.353C271.401 812.353 274.597 759.518 224.113 767.946V767.954Z" fill="#8B371D"/>
<path d="M295.959 803.71C295.959 803.71 248.35 787.71 246.271 741.541L272.969 730.213L315.259 763.343L295.95 803.71H295.959Z" fill="#8B371D"/>
<path d="M246.098 765.45L191.265 811.446C191.265 811.446 206.113 809.4 217.764 823.517C229.415 837.634 225.3 853.125 225.3 853.125L287.444 786.406L246.09 765.459L246.098 765.45Z" fill="#FF6130"/>
<path d="M283.052 726.967L224.113 767.954C245.128 768.179 265.199 790.931 271.401 812.361L315.267 765.675L283.052 726.958V726.967Z" fill="#CC78B4"/>
<path d="M384.948 776.727C384.948 776.727 382.461 783.393 397.517 792.442L411.454 770.122C411.454 770.122 394.779 762.834 384.956 776.727H384.948Z" fill="#00A7BA"/>
<path d="M525.902 828.646C525.902 828.646 523.849 843.333 451.657 843.333C392.259 843.333 388.828 824.208 388.828 824.208C388.828 824.208 387.46 792.778 451.657 776.615C515.854 760.451 525.902 828.646 525.902 828.646Z" fill="#8B371D"/>
<path d="M512.423 787.77C512.423 787.77 505.571 876.351 518.365 964.941H384.948C384.948 964.941 404.594 883.872 403.58 791.872C403.58 791.872 437.493 749.053 512.432 787.77H512.423Z" fill="#FFB21C"/>
<path d="M656.123 433.887C656.123 433.887 635.559 477.154 584.841 499.699C584.841 499.699 640.124 592.381 634.537 663.391C630.535 679.598 678.741 582.59 656.123 433.887Z" fill="#CC78B4"/>
<path d="M402.402 631.098C311.499 625.857 289.454 546.498 289.454 546.498L237.704 577.236C259.638 604.564 276.772 663.313 279.856 688.25C282.939 713.186 246.272 741.533 246.272 741.533C299.727 751.1 295.959 803.701 295.959 803.701C295.959 803.701 361.412 726.5 383.345 735.722C405.278 744.943 384.948 776.71 384.948 776.71C386.888 771.589 401.857 774.663 401.857 774.663C383.692 824.536 388.837 824.19 388.837 824.19C391.921 801.991 451.665 787.295 451.665 787.295C524.429 806.421 525.911 828.629 525.911 828.629C525.911 828.629 521.796 785.249 532.763 775C543.729 764.751 563.601 765.096 583.827 765.096C604.054 765.096 969.009 758.266 969.009 758.266L948.444 728.547L707.647 721.484C707.647 721.484 672.92 722.39 671.092 676.395C669.264 630.399 662.638 440.7 662.638 440.7C662.638 440.7 663.322 433.87 656.123 433.87C656.123 433.87 655.777 614.909 631.791 670.583C624.592 684.243 624.939 725.576 571.475 720.111C518.01 714.645 523.156 655.551 523.156 629.587C528.613 478.89 513.558 453.841 513.558 453.841C513.558 453.841 498.078 457.088 487.857 470.066C495.679 520.189 476.89 640.397 402.385 631.064L402.402 631.098Z" fill="#F3EBE0"/>
<path d="M269.284 570.347C283.408 561.312 292.104 549.709 288.706 544.432C285.308 539.154 271.104 542.2 256.979 551.235C242.855 560.27 234.159 571.873 237.557 577.15C240.955 582.428 255.16 579.382 269.284 570.347Z" fill="#00A7BA"/>
<path d="M380.608 400.498C380.608 400.498 381.517 411.766 373.297 413.821C365.076 415.876 361.758 409.607 361.758 409.607L361.074 442.289L380.634 452.995C380.634 452.995 379.005 444.266 388.144 441.494C397.283 438.722 402.991 445.138 402.991 445.138L406.075 414.624L380.599 400.506L380.608 400.498Z" fill="#CC78B4"/>
<path d="M528.83 337.086C528.83 337.086 442.059 363.378 380.608 400.498C380.608 400.498 380.833 422.36 403 445.129L458.171 430.442C458.171 430.442 469.362 426.729 481.983 452.158L511.566 436.106C511.566 436.106 503.059 421.108 512.198 417.119L544.188 408.536L528.83 337.086Z" fill="#F3EBE0"/>
<path d="M361.758 409.607C361.758 409.607 272.328 466.543 248.463 503.533C247.528 504.983 249.251 506.676 250.689 505.709C260.859 498.827 284.62 484.528 322.007 472.233C373.409 455.327 380.634 452.987 380.634 452.987L361.758 409.607Z" fill="#F3EBE0"/>
<path d="M499.239 448.659C507.408 444.228 512.933 438.626 511.58 436.147C510.226 433.667 502.506 435.248 494.337 439.679C486.167 444.109 480.642 449.711 481.996 452.191C483.349 454.671 491.069 453.089 499.239 448.659Z" fill="#FF6130"/>
<path d="M544.192 408.534C550.516 407.184 552.206 390.092 547.965 370.359C543.725 350.625 535.16 335.723 528.835 337.073C522.511 338.424 520.821 355.516 525.062 375.249C529.302 394.982 537.867 409.885 544.192 408.534Z" fill="#FF6130"/>
</g>
<rect x="705" width="36" height="965" fill="#FF6130"/>
<defs>
<clipPath id="clip0_1129_1006">
<rect width="969" height="651.627" fill="white" transform="translate(0 312.373)"/>
</clipPath>
</defs>
</svg>
