<svg width="543" height="965" viewBox="0 0 543 965" fill="none" xmlns="http://www.w3.org/2000/svg">
<g clip-path="url(#clip0_917_1014)">
<path d="M462.294 472.406H460.033L438.621 496.878C438.621 496.878 457.773 566.708 436.336 627.516C436.148 634.383 481.56 567.304 462.302 472.414L462.294 472.406Z" fill="#F3EBE0"/>
<path d="M271.072 515.544C271.072 515.544 277.216 508.073 295.724 508.497C314.232 508.922 320.262 528.094 324.563 544.678C328.863 561.262 337.758 613.096 354.185 644.027C354.185 644.027 308.846 636.841 308.201 563.41C310.78 542.955 284.283 515.479 271.063 515.536L271.072 515.544Z" fill="#F3EBE0"/>
<path d="M382.012 458.941H383.718L402.201 476.301C402.201 476.301 390.899 518.941 392.294 572.718L376.055 566.259C376.055 566.259 361.015 495.351 382.012 458.933V458.941Z" fill="#F3EBE0"/>
<path d="M449.702 780.356L543 728.024H73.6067L0 780.356H449.702Z" fill="#FFB21C"/>
<path d="M543 728.024V1025H449.702V780.356L543 728.024Z" fill="#00A7BA"/>
<path d="M220.6 728.024L141.827 780.356V-60H220.6V728.024Z" fill="#FFB21C"/>
<path d="M141.827 780.356V-60H-66.4282V780.356V987.096H449.702V780.356H141.827Z" fill="#9D9A00"/>
<path d="M409.774 756.456C409.774 756.456 420.537 755.166 420.537 750.316C420.537 745.466 407.301 740.787 393.902 740.787C380.502 740.787 374.211 745.474 374.211 748.617C374.211 751.761 388.043 760.972 409.774 756.448V756.456Z" fill="#8B371D"/>
<path d="M409.774 756.456V721.141C409.774 721.141 408.917 711.881 421.614 711.881V695.297C421.614 695.297 417.314 693.787 417.314 689.916C417.314 686.046 419.68 684.535 423.124 683.237C426.568 681.939 479.945 647.701 485.322 595.802C491.777 573.192 482.091 487.692 462.294 472.406C462.294 472.406 482.205 595.696 409.765 659.223C401.923 660.513 403.645 646.95 404.722 639.413C405.799 631.877 411.398 596.773 385.35 562.315C378.674 550.467 368.564 488.663 382.012 458.95C382.012 458.95 344.89 504.823 359.734 566.194C374.578 627.565 375.231 636.18 362.101 643.292C348.971 650.404 324.008 624.021 317.227 586.869C310.445 549.716 311.09 516.916 271.063 515.552C271.063 515.552 301.893 529.368 296.565 572.816C291.236 616.264 298.686 632.865 318.842 651.474C350.154 680.387 380.502 697.665 380.502 727.061C380.502 756.456 380.502 753.549 380.502 753.549C380.502 753.549 386.255 760.008 409.774 756.456Z" fill="#9D9A00"/>
<path d="M421.59 711.849C425.434 711.849 428.551 708.142 428.551 703.569C428.551 698.996 425.434 695.289 421.59 695.289C417.746 695.289 414.629 698.996 414.629 703.569C414.629 708.142 417.746 711.849 421.59 711.849Z" fill="#FF6130"/>
</g>
<defs>
<clipPath id="clip0_917_1014">
<rect width="543" height="965" fill="white"/>
</clipPath>
</defs>
</svg>
