<svg width="1728" height="1075" viewBox="0 0 1728 1075" fill="none" xmlns="http://www.w3.org/2000/svg">
<g clip-path="url(#clip0_1186_1116)">
<g clip-path="url(#clip1_1186_1116)">
<path d="M463.294 472.406H461.033L439.621 496.878C439.621 496.878 458.773 566.708 437.336 627.516C437.148 634.383 482.56 567.304 463.302 472.414L463.294 472.406Z" fill="#F3EBE0"/>
<path d="M272.072 515.544C272.072 515.544 278.216 508.073 296.724 508.497C315.232 508.922 321.262 528.094 325.563 544.678C329.863 561.262 338.758 613.096 355.185 644.027C355.185 644.027 309.846 636.841 309.201 563.41C311.78 542.955 285.283 515.479 272.063 515.536L272.072 515.544Z" fill="#F3EBE0"/>
<path d="M383.012 458.941H384.718L403.201 476.301C403.201 476.301 391.899 518.941 393.294 572.718L377.055 566.259C377.055 566.259 362.015 495.351 383.012 458.933V458.941Z" fill="#F3EBE0"/>
<path d="M450.702 780.356L544 728.024H74.6066L1 780.356H450.702Z" fill="#FFB21C"/>
<path d="M544 728.024V1025H450.702V780.356L544 728.024Z" fill="#00A7BA"/>
<path d="M221.6 728.024L142.827 780.356V-60H221.6V728.024Z" fill="#FFB21C"/>
<path d="M142.827 780.356V-60H-65.4282V780.356V987.096H450.702V780.356H142.827Z" fill="#9D9A00"/>
<path d="M410.774 756.456C410.774 756.456 421.537 755.166 421.537 750.316C421.537 745.466 408.301 740.787 394.902 740.787C381.502 740.787 375.211 745.474 375.211 748.617C375.211 751.761 389.043 760.972 410.774 756.448V756.456Z" fill="#8B371D"/>
<path d="M410.774 756.456V721.141C410.774 721.141 409.917 711.881 422.614 711.881V695.297C422.614 695.297 418.314 693.787 418.314 689.916C418.314 686.046 420.68 684.535 424.124 683.237C427.568 681.939 480.945 647.701 486.322 595.802C492.777 573.192 483.091 487.692 463.294 472.406C463.294 472.406 483.205 595.696 410.765 659.222C402.923 660.513 404.645 646.95 405.722 639.413C406.8 631.877 412.398 596.773 386.35 562.315C379.674 550.467 369.564 488.663 383.012 458.95C383.012 458.95 345.89 504.823 360.734 566.194C375.578 627.565 376.231 636.18 363.101 643.292C349.971 650.404 325.008 624.021 318.227 586.869C311.445 549.716 312.09 516.916 272.063 515.552C272.063 515.552 302.893 529.368 297.565 572.816C292.236 616.264 299.686 632.865 319.842 651.474C351.154 680.387 381.502 697.665 381.502 727.061C381.502 756.456 381.502 753.549 381.502 753.549C381.502 753.549 387.255 760.008 410.774 756.456Z" fill="#9D9A00"/>
<path d="M422.59 711.849C426.434 711.849 429.551 708.142 429.551 703.569C429.551 698.996 426.434 695.289 422.59 695.289C418.746 695.289 415.629 698.996 415.629 703.569C415.629 708.142 418.746 711.849 422.59 711.849Z" fill="#FF6130"/>
</g>
<rect y="965" width="1728" height="110" fill="#0F2115"/>
<ellipse cx="719" cy="1022.5" rx="50" ry="17.5" fill="#09150D"/>
<g clip-path="url(#clip2_1186_1116)">
<path d="M799.966 927.194C819.045 957.505 810.122 997.668 780.045 1016.89C749.968 1036.11 710.113 1027.12 691.041 996.813C671.962 966.496 680.878 926.339 710.962 907.119C741.039 887.892 780.887 896.877 799.966 927.194Z" fill="url(#paint0_radial_1186_1116)"/>
</g>
<g clip-path="url(#clip3_1186_1116)">
<path d="M1132.18 836.952C1132.18 836.952 1119.9 841.502 1117.85 851.752L1134.63 856.872C1134.63 856.872 1140.34 848.445 1132.17 836.943L1132.18 836.952Z" fill="#8B371D"/>
<path d="M1212.31 853.124C1212.31 853.124 1185.13 838.325 1178.27 811.455L1193.8 803.26L1221.9 832.41L1212.3 853.133L1212.31 853.124Z" fill="#8B371D"/>
<path d="M987.277 1039.97C980.65 1036.78 1093.63 917.451 1093.63 917.451C1093.63 917.451 1124.46 883.293 1092.59 859.385L1059.36 835.476C1060.28 822.144 1064.08 812.43 1075.81 812.681L1133.04 850.163C1133.04 850.163 1134.58 844.637 1132.18 836.952L1147.43 846.174C1147.43 846.174 1154.63 849.42 1162.16 843.609C1169.7 837.798 1204.82 803.243 1204.82 803.243L1226.36 823.621C1226.36 823.621 993.904 1043.16 987.277 1039.97Z" fill="#9D9A00"/>
<path d="M1211.11 767.954C1211.11 767.954 1204.49 781.389 1227.1 798.693C1249.72 815.996 1258.4 812.353 1258.4 812.353C1258.4 812.353 1261.6 759.518 1211.11 767.946V767.954Z" fill="#8B371D"/>
<path d="M1282.96 803.71C1282.96 803.71 1235.35 787.71 1233.27 741.541L1259.97 730.213L1302.26 763.343L1282.95 803.71H1282.96Z" fill="#8B371D"/>
<path d="M1233.1 765.45L1178.27 811.446C1178.27 811.446 1193.11 809.4 1204.76 823.517C1216.41 837.634 1212.3 853.124 1212.3 853.124L1274.44 786.406L1233.09 765.459L1233.1 765.45Z" fill="#FF6130"/>
<path d="M1270.05 726.967L1211.11 767.954C1232.13 768.179 1252.2 790.931 1258.4 812.361L1302.27 765.675L1270.05 726.958V726.967Z" fill="#CC78B4"/>
<path d="M1371.95 776.727C1371.95 776.727 1369.46 783.393 1384.52 792.442L1398.45 770.122C1398.45 770.122 1381.78 762.834 1371.96 776.727H1371.95Z" fill="#00A7BA"/>
<path d="M1512.9 828.646C1512.9 828.646 1510.85 843.333 1438.66 843.333C1379.26 843.333 1375.83 824.208 1375.83 824.208C1375.83 824.208 1374.46 792.778 1438.66 776.615C1502.85 760.451 1512.9 828.646 1512.9 828.646Z" fill="#8B371D"/>
<path d="M1499.42 787.77C1499.42 787.77 1492.57 876.351 1505.37 964.941H1371.95C1371.95 964.941 1391.59 883.872 1390.58 791.872C1390.58 791.872 1424.49 749.053 1499.43 787.77H1499.42Z" fill="#FFB21C"/>
<path d="M1643.12 433.887C1643.12 433.887 1622.56 477.154 1571.84 499.699C1571.84 499.699 1627.12 592.381 1621.54 663.391C1617.53 679.598 1665.74 582.59 1643.12 433.887Z" fill="#CC78B4"/>
<path d="M1389.4 631.098C1298.5 625.857 1276.45 546.498 1276.45 546.498L1224.7 577.236C1246.64 604.564 1263.77 663.313 1266.86 688.25C1269.94 713.186 1233.27 741.533 1233.27 741.533C1286.73 751.1 1282.96 803.701 1282.96 803.701C1282.96 803.701 1348.41 726.5 1370.35 735.722C1392.28 744.943 1371.95 776.71 1371.95 776.71C1373.89 771.589 1388.86 774.663 1388.86 774.663C1370.69 824.536 1375.84 824.19 1375.84 824.19C1378.92 801.991 1438.67 787.295 1438.67 787.295C1511.43 806.421 1512.91 828.629 1512.91 828.629C1512.91 828.629 1508.8 785.249 1519.76 775C1530.73 764.751 1550.6 765.096 1570.83 765.096C1591.05 765.096 1956.01 758.266 1956.01 758.266L1935.44 728.547L1694.65 721.484C1694.65 721.484 1659.92 722.39 1658.09 676.394C1656.26 630.399 1649.64 440.7 1649.64 440.7C1649.64 440.7 1650.32 433.87 1643.12 433.87C1643.12 433.87 1642.78 614.908 1618.79 670.583C1611.59 684.243 1611.94 725.576 1558.47 720.111C1505.01 714.645 1510.16 655.551 1510.16 629.587C1515.61 478.89 1500.56 453.841 1500.56 453.841C1500.56 453.841 1485.08 457.088 1474.86 470.066C1482.68 520.189 1463.89 640.397 1389.38 631.064L1389.4 631.098Z" fill="#F3EBE0"/>
<path d="M1256.28 570.347C1270.41 561.312 1279.1 549.709 1275.71 544.432C1272.31 539.154 1258.1 542.2 1243.98 551.235C1229.86 560.27 1221.16 571.873 1224.56 577.15C1227.96 582.428 1242.16 579.382 1256.28 570.347Z" fill="#00A7BA"/>
<path d="M1367.61 400.498C1367.61 400.498 1368.52 411.766 1360.3 413.821C1352.08 415.876 1348.76 409.607 1348.76 409.607L1348.07 442.289L1367.63 452.995C1367.63 452.995 1366.01 444.266 1375.14 441.494C1384.28 438.722 1389.99 445.138 1389.99 445.138L1393.08 414.624L1367.6 400.506L1367.61 400.498Z" fill="#CC78B4"/>
<path d="M1515.83 337.086C1515.83 337.086 1429.06 363.378 1367.61 400.498C1367.61 400.498 1367.83 422.36 1390 445.129L1445.17 430.442C1445.17 430.442 1456.36 426.729 1468.98 452.158L1498.57 436.106C1498.57 436.106 1490.06 421.108 1499.2 417.119L1531.19 408.536L1515.83 337.086Z" fill="#F3EBE0"/>
<path d="M1348.76 409.607C1348.76 409.607 1259.33 466.543 1235.46 503.533C1234.53 504.983 1236.25 506.676 1237.69 505.709C1247.86 498.827 1271.62 484.528 1309.01 472.233C1360.41 455.326 1367.63 452.987 1367.63 452.987L1348.76 409.607Z" fill="#F3EBE0"/>
<path d="M1486.24 448.659C1494.41 444.228 1499.93 438.626 1498.58 436.147C1497.23 433.667 1489.51 435.248 1481.34 439.679C1473.17 444.109 1467.64 449.711 1469 452.191C1470.35 454.671 1478.07 453.089 1486.24 448.659Z" fill="#FF6130"/>
<path d="M1531.19 408.534C1537.52 407.184 1539.21 390.092 1534.97 370.359C1530.72 350.625 1522.16 335.723 1515.84 337.073C1509.51 338.424 1507.82 355.516 1512.06 375.249C1516.3 394.982 1524.87 409.885 1531.19 408.534Z" fill="#FF6130"/>
</g>
<rect x="1692" width="36" height="1040" fill="#FF6130"/>
</g>
<defs>
<radialGradient id="paint0_radial_1186_1116" cx="0" cy="0" r="1" gradientTransform="matrix(59.1968 -37.8294 37.5384 59.6556 753.988 934.037)" gradientUnits="userSpaceOnUse">
<stop stop-color="#FF2507"/>
<stop offset="0.2" stop-color="#FB2406"/>
<stop offset="0.34" stop-color="#F22206"/>
<stop offset="0.47" stop-color="#E11F05"/>
<stop offset="0.59" stop-color="#CA1A04"/>
<stop offset="0.7" stop-color="#AD1402"/>
<stop offset="0.81" stop-color="#890D00"/>
<stop offset="0.83" stop-color="#800C00"/>
<stop offset="0.87" stop-color="#7A0C01"/>
<stop offset="0.92" stop-color="#6B0C05"/>
<stop offset="0.97" stop-color="#520C0C"/>
<stop offset="1" stop-color="#430D10"/>
</radialGradient>
<clipPath id="clip0_1186_1116">
<rect width="1728" height="1075" fill="white"/>
</clipPath>
<clipPath id="clip1_1186_1116">
<rect width="543" height="965" fill="white" transform="translate(1)"/>
</clipPath>
<clipPath id="clip2_1186_1116">
<rect width="129" height="130" fill="white" transform="translate(681 897)"/>
</clipPath>
<clipPath id="clip3_1186_1116">
<rect width="969" height="702.271" fill="white" transform="translate(987 336.651)"/>
</clipPath>
</defs>
</svg>
