<svg width="567" height="169" viewBox="0 0 567 169" fill="none" xmlns="http://www.w3.org/2000/svg">
<path d="M248.98 107.838L248.777 108.038V115.766L248.98 115.967H270.796V142.287L267.393 164.899L267.364 165.08L267.531 165.309L282.024 167.799L295.166 165.855L295.304 165.542C295.227 165.429 287.595 154.268 286.948 138.728V115.971H308.764L308.967 115.77V108.123L308.764 107.922L248.976 107.842L248.98 107.838Z" fill="#F3EBE0"/>
<path d="M471.184 107.85H461.53L461.408 107.89C461.351 107.93 460.026 108.958 459.822 112.436C459.566 114.312 459.717 116.549 460.29 119.272L438.311 167.514L438.498 167.799H447.273L447.338 167.759L447.363 167.783L454.325 164.951L454.451 164.767L454.695 151.444L464.247 130.012C465.739 133.479 467.609 137.286 469.817 141.327C470.354 142.431 470.85 143.447 471.281 144.327C472.111 146.026 472.77 147.367 472.814 147.516C472.798 147.46 472.818 147.347 472.92 147.299C472.928 147.299 472.932 147.295 472.94 147.291C472.969 147.355 472.989 147.404 473.001 147.436L472.81 147.548C472.839 147.604 475.478 153.103 477.169 158.786C477.93 161.698 478.361 164.389 478.56 167.506L478.877 167.663C478.877 167.663 479.678 167.152 481.321 166.755C482.838 166.385 485.416 166.036 489.056 166.458C491.032 166.715 493.203 167.164 495.513 167.795L495.566 167.803H498.888L499.075 167.518L471.375 107.974L471.188 107.858L471.184 107.85Z" fill="#F3EBE0"/>
<path d="M203.136 107.986L203.034 107.914H201.578L201.391 108.038C201.367 108.095 199 113.798 201.379 123.172C204.006 133.74 202.066 139.363 201.525 140.628L173.431 107.986L173.276 107.914H157.962L157.759 108.115L157.747 130.587L149.215 160.537L149.374 160.79C151.741 161.24 157.722 167.663 157.783 167.727L157.844 167.703L157.934 167.791H167.274L167.478 167.586L167.372 124.972L204.429 167.719L204.583 167.791H210.776L210.98 167.59L210.951 131.39C210.345 113.432 212.411 108.191 212.44 108.123L212.151 107.87C208.056 110.063 203.912 108.348 203.124 107.982L203.136 107.986Z" fill="#F3EBE0"/>
<path d="M113.561 103.138L113.761 102.982C113.761 102.982 114.228 101.026 115.408 98.8407C117.372 95.2058 119.775 93.6997 121.442 93.0771C121.605 93.0169 125.443 91.6352 129.225 94.5953L129.412 94.6315C129.412 94.6315 130.522 94.2941 131.628 93.9447C133.633 93.3181 133.922 93.2217 133.979 93.1052L135.101 91.832V91.5629C135.036 91.4906 133.507 89.8118 130.807 88.2694C128.314 86.8476 124.325 85.2973 119.474 86.0001C115.046 86.6428 111.451 89.7796 109.08 95.0653C107.299 99.0375 106.823 102.873 106.815 102.909L107.019 103.134H113.557L113.561 103.138Z" fill="#F3EBE0"/>
<path d="M139.733 159.919C139.733 159.919 139.725 159.907 139.716 159.899C135.845 155.143 132.23 149.095 128.798 141.636C120.702 124.048 113.224 108.191 113.151 108.034L112.964 107.918H107.372L107.185 108.034C107.112 108.195 99.5853 124.442 92.6887 139.857C87.809 150.757 81.6566 163.747 77.3747 167.446L77.4601 167.795C77.5698 167.823 79.9568 168.398 83.4458 166.803C84.625 166.293 85.9019 165.534 87.199 164.417C88.5247 163.325 89.8137 161.995 91.0499 160.437C93.6443 157.168 96.0272 152.87 98.1336 147.665H114.631C116.778 152.93 119.82 157.264 123.675 160.549C126.761 163.18 130.372 165.144 134.41 166.393C134.41 166.393 134.438 166.401 134.454 166.409C134.471 166.413 134.487 166.421 134.503 166.425C134.658 166.474 134.808 166.518 134.963 166.562C137.834 167.401 140.461 167.747 142.53 167.863C143.315 167.912 144.027 167.932 144.649 167.932C146.316 167.932 147.333 167.803 147.357 167.799L147.455 167.438C144.763 165.437 142.197 162.939 139.737 159.923L139.733 159.919Z" fill="#F3EBE0"/>
<path d="M20.0427 134.089C15.7364 121.847 16.2203 108.203 16.2243 108.066L16.021 107.858H0.341048L0.137729 108.038C0.121463 108.175 -1.26517 121.779 5.12718 135.005C10.4623 146.046 8.68934 158.585 8.01838 162.168C8.00212 162.256 7.99399 162.309 7.98992 162.325L8.18511 162.546C8.2339 162.546 13.2112 162.787 16.3545 163.915C19.4287 164.984 23.8082 168.96 23.8529 169L24.1904 168.9C24.1985 168.867 25.0443 165.49 24.9549 159.537C24.8695 154.055 23.9505 145.186 20.0468 134.093L20.0427 134.089Z" fill="#F3EBE0"/>
<path d="M440.023 107.721H430.971L430.784 107.842L413.73 146.669C413.242 145.448 412.237 143.142 410.737 139.796C408.952 135.708 407.679 132.896 406.479 130.406L406.227 129.856C404.54 126.153 403.515 122.421 403.186 118.77C402.625 112.248 404.479 108.046 404.495 108.006L404.21 107.745C404.023 107.842 403.84 107.938 403.653 108.026L403.491 108.107C403.356 108.171 403.222 108.235 403.088 108.295L402.925 108.368C402.746 108.448 402.564 108.528 402.385 108.601C402.206 108.677 402.027 108.745 401.852 108.814L401.693 108.874C401.563 108.922 401.433 108.97 401.303 109.014L401.279 109.022C401.234 109.038 401.193 109.055 401.148 109.067C400.978 109.127 400.807 109.183 400.632 109.235C400.461 109.288 400.29 109.34 400.124 109.384L399.973 109.424C399.851 109.456 399.725 109.488 399.603 109.52L399.457 109.557C399.294 109.597 399.132 109.633 398.981 109.665H398.969C398.806 109.701 398.648 109.733 398.485 109.761L398.343 109.786C398.225 109.806 398.107 109.826 397.993 109.842L397.855 109.862C397.704 109.886 397.554 109.906 397.395 109.922C397.241 109.942 397.09 109.954 396.94 109.97L396.806 109.982C396.696 109.99 396.586 109.998 396.476 110.006L396.346 110.014C396.2 110.023 396.057 110.031 395.911 110.035C395.769 110.039 395.626 110.039 395.484 110.043C395.468 110.043 395.451 110.043 395.439 110.043C390.515 110.043 387.4 107.769 387.367 107.745L387.058 107.826C387.026 107.894 386.298 109.553 386.119 112.89C385.956 115.955 386.249 121.076 388.595 128.072C391.251 135.993 407.106 167.353 407.264 167.671L407.447 167.783H413.039L413.226 167.663L440.218 107.99L440.031 107.705L440.023 107.721Z" fill="#F3EBE0"/>
<path d="M561.27 156.906L558.603 149.773C556.427 143.572 551.458 140.724 548.921 140.118C549.779 139.547 551.804 138.11 553.862 135.993C556.362 133.422 559.432 129.285 559.851 124.197C560.136 120.722 558.806 117.216 556.106 114.324C552.308 110.255 546.31 107.918 539.654 107.918H510.148L509.945 108.119V167.598L510.148 167.799H525.889L526.092 167.598V115.646C535.193 116.264 540.812 118.855 542.797 123.341C544.655 127.538 542.947 132.683 541.187 136.258C539.267 140.158 536.872 143.094 536.848 143.122L536.892 143.419L538.308 144.347L538.515 144.339C539.837 145.355 540.686 146.717 541.52 149.143L544.789 158.489C546.001 161.991 546.936 164.526 548.852 167.703L549.027 167.803H566.833L567 167.482C564.06 163.497 562.934 161.421 561.262 156.911L561.27 156.906Z" fill="#F3EBE0"/>
<path d="M66.123 157.36C66.0132 157.272 65.8993 157.184 65.7814 157.103L87.7846 108.203L87.5975 107.918H78.5458L78.3587 108.038L61.4873 146.753C60.613 144.568 58.0959 138.921 53.9889 129.944C50.935 123.265 50.5772 117.71 50.8171 114.224C51.0733 110.448 52.0655 108.223 52.0777 108.199L51.793 107.938C50.7805 108.468 49.7476 108.918 48.727 109.267C46.6328 109.958 44.8558 110.159 44.1929 110.211C38.5895 110.617 34.9785 107.986 34.9419 107.958L34.6369 108.03C34.5963 108.111 33.6122 110.083 33.3316 113.589C33.0714 116.81 33.3926 121.988 36.3855 128.338L55.0014 167.819L55.3389 167.871C55.3592 167.851 57.3396 165.771 61.7679 165.771C63.6913 165.771 65.6106 166.743 65.6309 166.755L65.8749 166.715C65.9644 166.622 68.022 164.449 68.022 161.726C68.022 159.316 66.9932 158.023 66.1311 157.364L66.123 157.36Z" fill="#F3EBE0"/>
<path d="M366.06 117.252C360.106 111.593 352.197 108.476 343.78 108.476C335.362 108.476 327.453 111.593 321.5 117.252C315.547 122.915 312.269 130.442 312.269 138.451C312.269 146.46 315.547 153.987 321.5 159.65C327.453 165.309 335.362 168.426 343.78 168.426C352.197 168.426 360.106 165.309 366.06 159.65C372.013 153.987 375.29 146.46 375.29 138.451C375.29 130.442 372.013 122.915 366.06 117.252ZM349.94 154.223C346.927 157.352 343.52 158.292 342.17 158.553C341.047 158.525 340.25 158.356 339.957 158.284C337.274 157.625 334.822 155.296 333.049 151.725C331.113 147.821 330.088 142.696 330.088 136.909C330.088 129.221 331.617 123.65 334.635 120.353C337.176 117.577 339.966 117.361 340.758 117.361C344.402 117.361 347.505 118.895 349.973 121.915C351.848 124.213 353.381 127.438 354.405 131.237C355.019 133.884 355.145 135.973 355.166 136.362C355.556 144.211 353.799 150.215 349.94 154.219V154.223Z" fill="#F3EBE0"/>
<path d="M64.8136 16.8932H99.3779V21.8896H74.0768V38.8551H93.3881V43.9239H74.0768V66.1669H64.8136V16.8932Z" fill="#F3EBE0"/>
<path d="M150.688 16.8932V46.9482C150.688 60.0419 142.351 66.8698 130.591 66.8698C117.335 66.8698 109.568 59.5478 109.568 47.0205V16.8932H118.831V46.2454C118.831 55.7483 123.463 61.1665 131.872 61.1665C140.282 61.1665 144.702 56.3789 144.702 46.2454V16.8932H150.688Z" fill="#F3EBE0"/>
<path d="M200.859 16.8932H206.844V66.3075H203.209L170.71 27.2395V66.1669H164.725V16.8932H173.634L200.859 49.8361V16.8932Z" fill="#F3EBE0"/>
<path d="M221.67 66.1669V16.8932H238.131C255.234 16.8932 266.425 25.8338 266.425 41.3172C266.425 57.5758 254.807 66.1669 239.058 66.1669H221.67ZM237.419 21.6085H230.934V61.4516H237.989C249.533 61.4516 256.446 55.0454 256.446 41.3212C256.446 28.8622 249.533 21.6125 237.419 21.6125V21.6085Z" fill="#F3EBE0"/>
<path d="M302.913 52.4427H282.817L276.9 66.1669H271.057L292.934 16.612H296.781L318.8 66.1669H309.037L302.909 52.4427H302.913ZM284.809 47.864H300.916L292.722 29.4928L284.813 47.864H284.809Z" fill="#F3EBE0"/>
<path d="M349.448 16.1903C358.285 16.1903 365.271 19.9899 369.333 27.0307L365.486 31.0431C362.351 25.4121 357.789 21.3996 350.449 21.3996C340.612 21.3996 333.915 28.6493 333.915 41.3895C333.915 54.1297 341.539 61.3793 350.375 61.4516C357.715 61.4516 362.278 58.1421 365.555 52.2299L369.333 55.1177C365.271 62.5802 358.358 66.8738 349.095 66.8738C335.127 66.8738 323.509 57.2303 323.509 41.9558C323.509 26.6812 335.053 16.1943 349.448 16.1943V16.1903Z" fill="#F3EBE0"/>
<path d="M388.429 66.1669H379.165V16.8932H388.429V66.1669Z" fill="#F3EBE0"/>
<path d="M424.563 16.1903C438.889 16.1903 450.006 27.099 450.006 41.5301C450.006 55.9611 438.889 66.8698 424.563 66.8698C410.237 66.8698 399.119 55.9611 399.119 41.5301C399.119 27.099 410.164 16.1903 424.563 16.1903ZM424.563 62.2951C434.253 62.2951 439.6 54.4831 439.6 41.5301C439.6 28.577 434.257 20.6927 424.563 20.6927C414.868 20.6927 409.525 28.5047 409.525 41.5301C409.525 54.5554 414.799 62.2951 424.563 62.2951ZM426.344 12.2461H422.066L426.128 0H435.465L426.344 12.2461Z" fill="#F3EBE0"/>
<path d="M496.753 16.8932H502.739V66.3075H499.104L466.605 27.2395V66.1669H460.619V16.8932H469.529L496.753 49.8361V16.8932Z" fill="#F3EBE0"/>
</svg>
