<svg width="822" height="773" viewBox="0 0 822 773" fill="none" xmlns="http://www.w3.org/2000/svg">
<rect y="630.745" width="822" height="142" fill="#0F2115"/>
<path d="M184.182 502.324C184.182 502.324 171.898 506.874 169.845 517.123L186.633 522.244C186.633 522.244 192.342 513.816 184.173 502.315L184.182 502.324Z" fill="#8B371D"/>
<path d="M264.309 518.496C264.309 518.496 237.126 503.697 230.265 476.826L245.797 468.632L273.898 497.782L264.3 518.505L264.309 518.496Z" fill="#8B371D"/>
<path d="M39.2771 705.337C32.6504 702.151 145.625 582.823 145.625 582.823C145.625 582.823 176.463 548.665 144.594 524.756L111.357 500.847C112.284 487.516 116.078 477.802 127.807 478.052L185.039 515.535C185.039 515.535 186.581 510.009 184.181 502.324L199.427 511.545C199.427 511.545 206.626 514.792 214.162 508.981C221.698 503.17 256.824 468.615 256.824 468.615L278.359 488.992C278.359 488.992 45.9038 708.532 39.2771 705.337Z" fill="#9D9A00"/>
<path d="M263.113 433.326C263.113 433.326 256.486 446.761 279.104 464.065C301.721 481.368 310.401 477.724 310.401 477.724C310.401 477.724 313.597 424.89 263.113 433.317V433.326Z" fill="#8B371D"/>
<path d="M334.959 469.081C334.959 469.081 287.35 453.082 285.271 406.913L311.969 395.585L354.259 428.715L334.95 469.081H334.959Z" fill="#8B371D"/>
<path d="M285.098 430.822L230.265 476.818C230.265 476.818 245.113 474.771 256.764 488.889C268.415 503.006 264.3 518.496 264.3 518.496L326.444 451.778L285.09 430.831L285.098 430.822Z" fill="#FF6130"/>
<path d="M322.052 392.338L263.113 433.326C284.128 433.55 304.199 456.302 310.401 477.733L354.267 431.046L322.052 392.33V392.338Z" fill="#CC78B4"/>
<path d="M423.948 442.099C423.948 442.099 421.461 448.764 436.517 457.813L450.454 435.493C450.454 435.493 433.779 428.206 423.956 442.099H423.948Z" fill="#00A7BA"/>
<path d="M564.902 494.018C564.902 494.018 562.849 508.705 490.657 508.705C431.259 508.705 427.828 489.579 427.828 489.579C427.828 489.579 426.46 458.15 490.657 441.986C554.854 425.823 564.902 494.018 564.902 494.018Z" fill="#8B371D"/>
<path d="M551.423 453.142C551.423 453.142 544.571 541.723 557.365 630.312H423.948C423.948 630.312 443.594 549.244 442.58 457.243C442.58 457.243 476.494 414.425 551.432 453.142H551.423Z" fill="#FFB21C"/>
<path d="M695.123 99.2589C695.123 99.2589 674.559 142.526 623.841 165.071C623.841 165.071 679.124 257.753 673.537 328.763C669.535 344.97 717.741 247.961 695.123 99.2589Z" fill="#CC78B4"/>
<path d="M441.402 296.47C350.499 291.229 328.454 211.869 328.454 211.869L276.704 242.608C298.638 269.936 315.772 328.685 318.856 353.621C321.939 378.558 285.272 406.905 285.272 406.905C338.727 416.471 334.959 469.073 334.959 469.073C334.959 469.073 400.412 391.872 422.345 401.094C444.278 410.315 423.948 442.081 423.948 442.081C425.888 436.961 440.857 440.035 440.857 440.035C422.692 489.908 427.837 489.562 427.837 489.562C430.921 467.363 490.665 452.667 490.665 452.667C563.429 471.792 564.911 494 564.911 494C564.911 494 560.796 450.621 571.763 440.372C582.729 430.123 602.601 430.468 622.827 430.468C643.054 430.468 822 418.245 822 418.245V394.245L746.647 386.855C746.647 386.855 711.92 387.762 710.092 341.766C708.264 295.77 701.638 106.071 701.638 106.071C701.638 106.071 702.322 99.2416 695.123 99.2416C695.123 99.2416 694.777 280.28 670.791 335.955C663.592 349.615 663.939 390.948 610.475 385.482C557.01 380.017 562.156 320.923 562.156 294.959C567.613 144.262 552.558 119.213 552.558 119.213C552.558 119.213 537.078 122.46 526.857 135.437C534.679 185.56 515.89 305.769 441.385 296.435L441.402 296.47Z" fill="#F3EBE0"/>
<path d="M308.284 235.718C322.408 226.683 331.104 215.081 327.706 209.803C324.308 204.526 310.104 207.572 295.979 216.607C281.855 225.642 273.159 237.244 276.557 242.522C279.955 247.799 294.16 244.753 308.284 235.718Z" fill="#00A7BA"/>
<path d="M419.608 65.8695C419.608 65.8695 420.517 77.1374 412.297 79.1924C404.076 81.2474 400.758 74.9788 400.758 74.9788L400.074 107.66L419.634 118.367C419.634 118.367 418.005 109.638 427.144 106.866C436.283 104.094 441.991 110.51 441.991 110.51L445.075 79.9954L419.599 65.8781L419.608 65.8695Z" fill="#CC78B4"/>
<path d="M567.83 2.45803C567.83 2.45803 481.059 28.7499 419.608 65.8695C419.608 65.8695 419.833 87.7319 442 110.501L497.171 95.8137C497.171 95.8137 508.362 92.1009 520.983 117.529L550.566 101.478C550.566 101.478 542.059 86.4799 551.198 82.4908L583.188 73.9081L567.83 2.45803Z" fill="#F3EBE0"/>
<path d="M400.758 74.9788C400.758 74.9788 311.328 131.914 287.463 168.904C286.528 170.355 288.251 172.047 289.689 171.08C299.859 164.199 323.62 149.9 361.007 137.604C412.409 120.698 419.634 118.358 419.634 118.358L400.758 74.9788Z" fill="#F3EBE0"/>
<path d="M538.239 114.031C546.408 109.6 551.933 103.998 550.58 101.518C549.226 99.0386 541.506 100.62 533.337 105.05C525.167 109.481 519.642 115.083 520.996 117.563C522.349 120.042 530.069 118.461 538.239 114.031Z" fill="#FF6130"/>
<path d="M583.192 73.9061C589.516 72.5557 591.206 55.4639 586.965 35.7305C582.725 15.9971 574.16 1.09469 567.835 2.44505C561.511 3.79542 559.821 20.8872 564.062 40.6206C568.302 60.354 576.867 75.2565 583.192 73.9061Z" fill="#FF6130"/>
<ellipse cx="313" cy="728.245" rx="50" ry="17.5" fill="#09150D"/>
<g clip-path="url(#clip0_1182_1038)">
<path d="M393.966 632.939C413.045 663.249 404.122 703.413 374.045 722.633C343.968 741.86 304.113 732.868 285.041 702.558C265.962 672.241 274.878 632.084 304.962 612.864C335.039 593.637 374.887 602.622 393.966 632.939Z" fill="url(#paint0_radial_1182_1038)"/>
</g>
<defs>
<radialGradient id="paint0_radial_1182_1038" cx="0" cy="0" r="1" gradientTransform="matrix(59.1968 -37.8294 37.5384 59.6556 347.988 639.782)" gradientUnits="userSpaceOnUse">
<stop stop-color="#FF2507"/>
<stop offset="0.2" stop-color="#FB2406"/>
<stop offset="0.34" stop-color="#F22206"/>
<stop offset="0.47" stop-color="#E11F05"/>
<stop offset="0.59" stop-color="#CA1A04"/>
<stop offset="0.7" stop-color="#AD1402"/>
<stop offset="0.81" stop-color="#890D00"/>
<stop offset="0.83" stop-color="#800C00"/>
<stop offset="0.87" stop-color="#7A0C01"/>
<stop offset="0.92" stop-color="#6B0C05"/>
<stop offset="0.97" stop-color="#520C0C"/>
<stop offset="1" stop-color="#430D10"/>
</radialGradient>
<clipPath id="clip0_1182_1038">
<rect width="129" height="130" fill="white" transform="translate(275 602.745)"/>
</clipPath>
</defs>
</svg>
