<?xml version="1.0" encoding="UTF-8"?>
<svg xmlns="http://www.w3.org/2000/svg" version="1.1" xmlns:xlink="http://www.w3.org/1999/xlink" viewBox="0 0 1728 1075">
  <!-- Generator: Adobe Illustrator 29.4.0, SVG Export Plug-In . SVG Version: 2.1.0 Build 152)  -->
  <defs>
    <style>
      .st0 {
        fill: #0f2115;
      }

      .st1 {
        fill: #cc78b4;
      }

      .st2 {
        fill: #9d9a00;
      }

      .st3 {
        fill: none;
      }

      .st4 {
        fill: #ff6130;
      }

      .st5 {
        fill: #ffb21c;
      }

      .st6 {
        fill: #8b371d;
      }

      .st7 {
        fill: #f3ebe0;
      }

      .st8 {
        fill: #00a7ba;
      }

      .st9 {
        fill: url(#Degradado_sin_nombre);
      }

      .st10 {
        fill: #09150d;
      }

      .st11 {
        clip-path: url(#clippath);
      }
    </style>
    <clipPath id="clippath">
      <rect class="st3" x="681" y="897" width="129" height="130"/>
    </clipPath>
    <radialGradient id="Degradado_sin_nombre" data-name="Degradado sin nombre" cx="-136.9" cy="1531.4" fx="-136.9" fy="1531.4" r="1" gradientTransform="translate(66344.6 87115.4) rotate(-32.6) scale(70.3 -70.5) skewX(.4)" gradientUnits="userSpaceOnUse">
      <stop offset="0" stop-color="#ff2507"/>
      <stop offset=".2" stop-color="#fb2406"/>
      <stop offset=".3" stop-color="#f22206"/>
      <stop offset=".5" stop-color="#e11f05"/>
      <stop offset=".6" stop-color="#ca1a04"/>
      <stop offset=".7" stop-color="#ad1402"/>
      <stop offset=".8" stop-color="#890d00"/>
      <stop offset=".8" stop-color="#800c00"/>
      <stop offset=".9" stop-color="#7a0c01"/>
      <stop offset=".9" stop-color="#6b0c05"/>
      <stop offset="1" stop-color="#520c0c"/>
      <stop offset="1" stop-color="#430d10"/>
    </radialGradient>
  </defs>
  <g id="Capa_5">
    <rect class="st3" x="1" width="543" height="1025"/>
    <path class="st5" d="M450.7,780.4l93.3-52.3H74.6L1,780.4h449.7Z"/>
    <path class="st8" d="M544,728v259.1h-93.3s0-206.7,0-206.7l93.3-52.3Z"/>
    <path class="st5" d="M221.6,728l-78.8,52.3V0h78.8v728.1Z"/>
    <path class="st2" d="M1,987.1h449.7v-206.7H142.8V0H0"/>
    <path class="st6" d="M410.8,755.9s10.8-1.2,10.8-5.9-13.2-9.2-26.6-9.2-19.7,4.5-19.7,7.6,13.8,11.9,35.6,7.6h0Z"/>
    <g>
      <path class="st7" d="M463.3,472.4h-2.3l-21.4,24.5s19.2,69.8-2.3,130.6c-.2,6.9,45.2-60.2,26-155.1h0Z"/>
      <path class="st7" d="M272.1,515.5s6.1-7.5,24.7-7c18.5.4,24.5,19.6,28.8,36.2,4.3,16.6,13.2,68.4,29.6,99.3,0,0-45.3-7.2-46-80.6,2.6-20.5-23.9-47.9-37.1-47.9h0Z"/>
      <path class="st7" d="M383,458.9h1.7l18.5,17.4s-11.3,42.6-9.9,96.4l-16.2-6.5s-15-70.9,6-107.3h0Z"/>
      <path class="st2" d="M410.8,755.9v-34.8s-.9-9.3,11.8-9.3v-16.6s-4.3-1.5-4.3-5.4,2.4-5.4,5.8-6.7,56.8-35.5,62.2-87.4c6.5-22.6-3.2-108.1-23-123.4,0,0,19.9,123.3-52.5,186.8-7.8,1.3-6.1-12.3-5-19.8,1.1-7.5,6.7-42.6-19.4-77.1-6.7-11.8-16.8-73.7-3.3-103.4,0,0-37.1,45.9-22.3,107.2,14.8,61.4,15.5,70,2.4,77.1-13.1,7.1-38.1-19.3-44.9-56.4-6.8-37.2-6.1-70-46.2-71.3,0,0,30.8,13.8,25.5,57.3-5.3,43.4,2.1,60,22.3,78.7,31.3,28.9,61.7,46.2,61.7,75.6s0,26.5,0,26.5c0,0,10.2,6,29.3,2.4Z"/>
      <path class="st4" d="M422.6,711.8c3.8,0,7-3.7,7-8.3s-3.1-8.3-7-8.3-7,3.7-7,8.3,3.1,8.3,7,8.3Z"/>
    </g>
  </g>
  <g id="tapadera">
    <path class="st5" d="M375.2,748.4s2.9,7.1,20.5,8.8c27.6,0,25.9-7.1,25.9-7.1l1.1,30.4h-50.1l2.7-32Z"/>
  </g>
  <g id="bg">
    <rect class="st0" y="965" width="1728" height="110"/>
  </g>
  <g id="sombra">
    <ellipse class="st10" cx="719" cy="1022.5" rx="50" ry="17.5"/>
  </g>
  <g id="bola">
    <g class="st11">
      <path class="st9" d="M800,927.2c19.1,30.3,10.2,70.5-19.9,89.7-30.1,19.2-69.9,10.2-89-20.1-19.1-30.3-10.2-70.5,19.9-89.7,30.1-19.2,69.9-10.2,89,20.1Z"/>
    </g>
  </g>
  <g id="Capa_6">
    <g>
      <path class="st6" d="M1132.2,837s-12.3,4.6-14.3,14.8l16.8,5.1s5.7-8.4-2.5-19.9h0Z"/>
      <path class="st6" d="M1212.3,853.1s-27.2-14.8-34-41.7l15.5-8.2,28.1,29.1-9.6,20.7h0Z"/>
      <path class="st2" d="M987.3,1040c-6.6-3.2,106.4-122.5,106.4-122.5,0,0,30.8-34.2-1-58.1l-33.2-23.9c.9-13.3,4.7-23,16.5-22.8l57.2,37.5s1.5-5.5-.9-13.2l15.2,9.2s7.2,3.2,14.7-2.6c7.5-5.8,42.7-40.4,42.7-40.4l21.5,20.4s-232.5,219.5-239.1,216.3Z"/>
      <path class="st6" d="M1211.1,768s-6.6,13.4,16,30.7c22.6,17.3,31.3,13.7,31.3,13.7,0,0,3.2-52.8-47.3-44.4h0Z"/>
      <path class="st6" d="M1283,803.7s-47.6-16-49.7-62.2l26.7-11.3,42.3,33.1-19.3,40.4h0Z"/>
      <path class="st4" d="M1233.1,765.5l-54.8,46s14.8-2,26.5,12.1c11.7,14.1,7.5,29.6,7.5,29.6l62.1-66.7-41.3-20.9h0Z"/>
      <path class="st1" d="M1270.1,727l-58.9,41c21,.2,41.1,23,47.3,44.4l43.9-46.7-32.2-38.7h0Z"/>
      <path class="st8" d="M1371.9,776.7s-2.5,6.7,12.6,15.7l13.9-22.3s-16.7-7.3-26.5,6.6h0Z"/>
      <path class="st6" d="M1512.9,828.6s-2.1,14.7-74.2,14.7-62.8-19.1-62.8-19.1c0,0-1.4-31.4,62.8-47.6,64.2-16.2,74.2,52,74.2,52Z"/>
      <path class="st5" d="M1499.4,787.8s-6.9,88.6,5.9,177.2h-133.4s19.6-81.1,18.6-173.1c0,0,33.9-42.8,108.9-4.1h0Z"/>
      <path class="st1" d="M1643.1,433.9s-20.6,43.3-71.3,65.8c0,0,55.3,92.7,49.7,163.7-4,16.2,44.2-80.8,21.6-229.5Z"/>
      <path class="st7" d="M1389.4,631.1c-90.9-5.2-113-84.6-113-84.6l-51.8,30.7c21.9,27.3,39.1,86.1,42.2,111,3.1,24.9-33.6,53.3-33.6,53.3,53.5,9.6,49.7,62.2,49.7,62.2,0,0,65.5-77.2,87.4-68,21.9,9.2,1.6,41,1.6,41,1.9-5.1,16.9-2,16.9-2-18.2,49.9-13,49.5-13,49.5,3.1-22.2,62.8-36.9,62.8-36.9,72.8,19.1,74.2,41.3,74.2,41.3,0,0-4.1-43.4,6.8-53.6,11-10.2,30.8-9.9,51.1-9.9s157.2-2.6,157.2-2.6v-34.4l-33.3-6.6s-34.7.9-36.6-45.1c-1.8-46-8.4-235.7-8.4-235.7,0,0,.7-6.8-6.5-6.8,0,0-.3,181-24.3,236.7-7.2,13.7-6.9,55-60.3,49.5-53.5-5.5-48.3-64.6-48.3-90.5,5.4-150.7-9.6-175.7-9.6-175.7,0,0-15.5,3.2-25.7,16.2,7.8,50.1-11,170.3-85.5,161h0Z"/>
      <path class="st8" d="M1256.3,570.3c14.1-9,22.8-20.6,19.4-25.9-3.4-5.3-17.6-2.2-31.7,6.8-14.1,9-22.8,20.6-19.4,25.9,3.4,5.3,17.6,2.2,31.7-6.8Z"/>
      <path class="st1" d="M1367.6,400.5s.9,11.3-7.3,13.3c-8.2,2.1-11.5-4.2-11.5-4.2l-.7,32.7,19.6,10.7s-1.6-8.7,7.5-11.5c9.1-2.8,14.8,3.6,14.8,3.6l3.1-30.5-25.5-14.1h0Z"/>
      <path class="st7" d="M1515.8,337.1s-86.8,26.3-148.2,63.4c0,0,.2,21.9,22.4,44.6l55.2-14.7s11.2-3.7,23.8,21.7l29.6-16.1s-8.5-15,.6-19l32-8.6-15.4-71.5Z"/>
      <path class="st7" d="M1348.8,409.6s-89.4,56.9-113.3,93.9c-.9,1.5.8,3.1,2.2,2.2,10.2-6.9,33.9-21.2,71.3-33.5,51.4-16.9,58.6-19.2,58.6-19.2l-18.9-43.4Z"/>
      <path class="st4" d="M1486.2,448.7c8.2-4.4,13.7-10,12.3-12.5-1.3-2.5-9.1-.9-17.2,3.5-8.2,4.4-13.7,10-12.3,12.5,1.3,2.5,9.1.9,17.2-3.5Z"/>
      <path class="st4" d="M1531.2,408.5c6.3-1.4,8-18.4,3.8-38.2-4.2-19.7-12.8-34.6-19.1-33.3-6.3,1.4-8,18.4-3.8,38.2,4.2,19.7,12.8,34.6,19.1,33.3Z"/>
    </g>
  </g>
  <g id="pilar">
    <rect class="st4" x="1692" width="36" height="1007"/>
  </g>
</svg>